<svg width="493" height="304" viewBox="0 0 493 304" fill="none" xmlns="http://www.w3.org/2000/svg">
<path d="M392.886 228.386L420.611 215.408L450.042 228.386L422.256 251.297L392.886 228.386Z" fill="#333F72"/>
<path d="M466.128 173.424V181.224C466.128 203.16 448.336 220.952 426.4 220.952H418.6C396.664 220.952 378.872 203.16 378.872 181.224V173.424C378.872 151.488 396.664 133.696 418.6 133.696H426.4C448.336 133.696 466.128 151.488 466.128 173.424Z" fill="#333F72"/>
<path d="M493 303.944H352L353.95 294.194L354.011 293.89C354.803 290.112 355.839 286.456 357.179 282.922C359.19 277.681 361.81 272.746 364.918 268.237C365.446 267.424 366.015 266.632 366.624 265.86C369 262.631 371.621 259.706 374.484 256.964C380.882 250.993 388.316 246.179 396.481 242.949C396.481 242.949 396.481 242.929 396.481 242.888C396.644 242.848 396.786 242.807 396.908 242.767C404.89 239.598 413.543 237.892 422.5 237.892C431.457 237.892 440.11 239.598 448.031 242.767H448.092C456.44 246.057 464.057 250.871 470.516 256.964C473.4 259.686 476.04 262.651 478.437 265.86C478.985 266.591 479.595 267.384 480.082 268.237C483.251 272.746 485.81 277.681 487.821 282.922C489.161 286.456 490.197 290.112 490.989 293.89L491.05 294.194L493 303.944Z" fill="#E56E0C"/>
<path d="M393.678 202.307C388.499 206.877 380.639 206.389 376.008 201.21C371.438 196.031 371.925 188.17 377.105 183.6C382.284 178.969 390.205 179.457 394.775 184.636" fill="#F3EDE1"/>
<path d="M393.678 202.307C388.499 206.877 380.639 206.389 376.008 201.21C371.438 196.031 371.925 188.17 377.105 183.6C382.284 178.969 390.205 179.457 394.775 184.636" stroke="#333F72" stroke-width="1.5"/>
<path d="M410.313 258.548V215.408H434.748V258.548" fill="#F3EDE1"/>
<path d="M410.313 258.548V215.408H434.748V258.548" stroke="#333F72" stroke-width="1.5"/>
<path d="M434.199 218.576V229.239C429.629 231.738 424.328 233.139 418.722 233.139C415.96 233.139 413.319 232.814 410.801 232.164V218.576H434.199Z" fill="#F3CFBF"/>
<path d="M452.418 175.496V190.608C452.418 199.93 448.58 208.339 442.486 214.493C436.393 220.648 427.923 224.426 418.539 224.426C404.707 224.426 392.764 216.078 387.585 204.135C385.757 199.991 384.721 195.421 384.721 190.608V175.496C384.721 168.001 387.159 160.994 391.363 155.388C392.704 153.56 394.288 151.854 395.994 150.331C401.965 144.968 409.887 141.678 418.539 141.678C437.246 141.678 452.418 156.85 452.418 175.496Z" fill="#F3EDE1" stroke="#333F72" stroke-width="1.5"/>
<path d="M442.913 194.447C442.913 198.956 439.257 202.612 434.748 202.612C430.178 202.612 426.522 198.956 426.522 194.447C426.522 189.877 430.178 186.221 434.748 186.221C439.257 186.221 442.913 189.877 442.913 194.447Z" fill="#F3CFBF"/>
<path d="M404.22 194.447C404.22 198.956 400.564 202.612 396.055 202.612C391.546 202.612 387.89 198.956 387.89 194.447C387.89 189.877 391.546 186.221 396.055 186.221C400.564 186.221 404.22 189.877 404.22 194.447Z" fill="#F3CFBF"/>
<path d="M432.615 186.22C432.615 187.926 431.274 189.267 429.568 189.267C427.923 189.267 426.522 187.926 426.522 186.22C426.522 184.575 427.923 183.235 429.568 183.235C431.274 183.235 432.615 184.575 432.615 186.22Z" fill="#333F72"/>
<path d="M403.306 186.22C403.306 187.926 401.965 189.267 400.259 189.267C398.614 189.267 397.213 187.926 397.213 186.22C397.213 184.575 398.614 183.235 400.259 183.235C401.965 183.235 403.306 184.575 403.306 186.22Z" fill="#333F72"/>
<path d="M416.346 200.052H408.546L418.539 141.861" fill="#F3EDE1"/>
<path d="M416.346 200.052H408.546L418.539 141.861" stroke="#333F72" stroke-width="1.5"/>
<path d="M410.252 206.877C415.615 212.178 420.611 206.877 420.611 206.877" stroke="#333F72" stroke-width="1.5"/>
<path d="M392.886 175.374C392.886 175.374 394.532 171.535 398.553 170.621C401.295 170.012 404.22 171.292 404.22 175.374H392.886Z" fill="#333F72"/>
<path d="M425.912 175.374C425.912 171.292 428.837 170.012 431.579 170.621C435.601 171.535 437.185 175.374 437.185 175.374H425.912Z" fill="#333F72"/>
<path d="M448.092 184.636C452.662 179.457 460.583 178.969 465.763 183.6C470.942 188.17 471.43 196.031 466.799 201.21C462.229 206.389 454.368 206.877 449.189 202.307" fill="#F3EDE1"/>
<path d="M448.092 184.636C452.662 179.457 460.583 178.969 465.763 183.6C470.942 188.17 471.43 196.031 466.799 201.21C462.229 206.389 454.368 206.877 449.189 202.307" stroke="#333F72" stroke-width="1.5"/>
<path d="M455.16 195.787L461.619 189.572" stroke="#333F72" stroke-width="1.5"/>
<path d="M403.306 157.216C372.9 157.216 375.398 117 405.804 117C431.579 117 434.199 141.8 462.716 131.258C462.716 131.258 459.487 157.216 432.615 157.216H403.306Z" fill="#333F72"/>
<path d="M403.306 259.828L392.886 228.386L414.457 241.609L418.539 262.57L403.306 259.828Z" fill="#E56E0C"/>
<path d="M424.389 262.57L428.471 241.609L450.042 228.386L439.622 259.828L424.389 262.57Z" fill="#E56E0C"/>
<path d="M421.891 269.151C418.417 269.151 418.417 274.513 421.891 274.513C425.303 274.513 425.303 269.151 421.891 269.151Z" fill="#F3EDE1"/>
<path d="M421.891 285.908C418.417 285.908 418.417 291.209 421.891 291.209C425.303 291.209 425.303 285.908 421.891 285.908Z" fill="#F3EDE1"/>
<path d="M445.594 241.853L439.622 259.828" stroke="#F3EDE1" stroke-width="2"/>
<path d="M396.908 242.767L403.306 259.828" stroke="#F3EDE1" stroke-width="2"/>
<mask id="path-29-inside-1_1_2613" fill="white">
<path fill-rule="evenodd" clip-rule="evenodd" d="M268.445 144.434C259.31 152.323 244.111 156.117 229.396 155.997C222.06 155.938 214.902 154.905 208.755 152.957C202.596 151.005 197.524 148.159 194.273 144.524C194.07 144.298 193.775 144.176 193.472 144.193C193.168 144.21 192.889 144.364 192.713 144.611C190.819 147.272 187.062 149.593 182.123 151.305C177.217 153.006 171.284 154.059 165.212 154.281C159.141 154.504 152.975 153.896 147.6 152.308C142.215 150.717 137.702 148.167 134.827 144.567C134.587 144.267 134.196 144.13 133.821 144.217C120.795 147.215 101.452 149.719 85.7071 147.544C77.8295 146.455 70.9718 144.211 66.245 140.382C61.5756 136.599 58.9099 131.213 59.4716 123.579C59.4945 123.267 59.3708 122.963 59.137 122.756C58.9032 122.55 58.5862 122.464 58.28 122.524C39.3763 126.269 25.4567 119.918 16.2366 110.837C6.96057 101.7 2.48312 89.8438 2.48312 82.7261C2.48312 82.6404 2.47211 82.5551 2.45035 82.4722C1.2373 77.8512 2.35229 69.6716 7.32086 62.3453C12.2487 55.0792 20.9554 48.6819 34.8873 47.5816C35.2771 47.5508 35.6133 47.2956 35.7477 46.9283C40.9748 32.645 52.6539 24.7426 65.0351 20.4454C77.4246 16.1452 90.3984 15.5028 97.9436 15.6753C98.1261 15.6795 98.3062 15.6337 98.4645 15.5428C113.224 7.0654 125.021 3.51986 137.139 3.05399C149.298 2.5866 161.85 5.21323 178.175 9.22139C178.358 9.26638 178.55 9.25861 178.729 9.19899C191.171 5.05495 201.829 2.35711 212.45 2.0329C223.051 1.70932 233.671 3.74962 246.024 9.16607C246.229 9.25625 246.459 9.27457 246.677 9.21808C265.337 4.36847 278.045 2.14022 289.413 2.7157C300.752 3.28972 310.84 6.65833 324.243 13.1657C324.384 13.234 324.539 13.2684 324.696 13.266C339.008 13.0437 349.269 14.4281 355.928 17.9556C359.231 19.705 361.631 21.9733 363.215 24.8334C364.804 27.7013 365.61 31.2318 365.61 35.558C365.61 36.0315 365.942 36.44 366.405 36.5369C380.569 39.4981 389.1 44.3543 393.087 49.9351C397 55.4118 396.68 61.8041 392.578 68.3592C392.359 68.7089 392.377 69.1571 392.624 69.4877C398.097 76.8231 401.38 82.2536 401.081 87.6915C400.784 93.0767 396.93 98.8283 386.958 106.655C386.66 106.889 386.52 107.27 386.595 107.641C387.38 111.51 387.116 114.659 386.026 117.215C384.938 119.766 382.987 121.825 380.224 123.446C374.646 126.718 365.893 128.128 354.909 128.128C354.356 128.128 353.909 128.575 353.909 129.128C353.909 131.339 353.157 133.074 351.809 134.443C350.438 135.836 348.398 136.901 345.759 137.628C340.47 139.086 333.069 139.104 324.812 138.006C324.526 137.968 324.238 138.055 324.021 138.245C323.804 138.434 323.68 138.709 323.68 138.997C323.68 139.259 323.49 139.784 322.77 140.545C322.08 141.274 321.024 142.089 319.614 142.921C316.801 144.582 312.705 146.237 307.673 147.384C297.615 149.677 283.927 149.92 269.463 144.26C269.118 144.125 268.726 144.192 268.445 144.434ZM208.151 154.864C202.26 152.997 197.155 150.286 193.594 146.717C191.222 149.434 187.347 151.611 182.778 153.195C177.659 154.97 171.525 156.051 165.286 156.28C159.047 156.509 152.658 155.888 147.033 154.226C141.646 152.634 136.888 150.066 133.668 146.303C120.536 149.267 101.274 151.713 85.4334 149.525C77.3964 148.414 70.121 146.096 64.986 141.936C60.0676 137.951 57.1837 132.332 57.41 124.722C38.4306 128.086 24.2719 121.558 14.8331 112.261C5.29553 102.867 0.535614 90.6028 0.483551 82.8542C-0.850433 77.5569 0.480957 68.8677 5.66562 61.2228C10.8551 53.5707 19.9179 46.9336 34.0937 45.6419C39.7046 30.9746 51.8384 22.9086 64.3793 18.5559C76.9288 14.2003 90.0015 13.5166 97.7101 13.6699C112.569 5.17054 124.616 1.53393 137.062 1.05547C149.465 0.578694 162.195 3.24367 178.371 7.2103C190.757 3.09725 201.555 0.364522 212.389 0.0338336C223.23 -0.297084 234.052 1.77825 246.509 7.19545C265.019 2.39751 277.893 0.129933 289.514 0.718267C301.173 1.30845 311.491 4.76758 324.903 11.2626C339.14 11.0584 349.766 12.4282 356.864 16.1883C360.46 18.0932 363.167 20.6192 364.965 23.8642C366.651 26.9081 367.505 30.5252 367.601 34.7467C381.489 37.7616 390.372 42.6943 394.714 48.7724C399.089 54.8945 398.715 61.96 394.631 68.8343C399.819 75.8367 403.414 81.6897 403.078 87.8015C402.735 94.0217 398.364 100.158 388.671 107.851C389.373 111.755 389.089 115.131 387.866 117.999C386.578 121.02 384.292 123.379 381.236 125.171C375.351 128.623 366.496 130.045 355.865 130.124C355.66 132.403 354.744 134.312 353.235 135.846C352.968 136.116 352.685 136.374 352.385 136.619C353.363 138.855 356.848 143.862 363.856 151.315C364.567 152.071 365.315 152.853 366.1 153.66C365.699 153.32 365.029 152.996 364.081 152.537C363.825 152.413 363.548 152.279 363.251 152.132C360.084 150.568 354.59 147.548 346.562 139.48C346.472 139.506 346.382 139.531 346.291 139.556C340.825 141.062 333.463 141.099 325.455 140.105C325.201 140.748 324.752 141.361 324.222 141.921C323.362 142.828 322.139 143.753 320.631 144.643C317.608 146.428 313.312 148.15 308.118 149.334C297.852 151.674 283.972 151.941 269.292 146.338C259.606 154.401 244.106 158.117 229.38 157.997C221.878 157.936 214.518 156.881 208.151 154.864ZM351.565 137.232C350.427 138.009 349.104 138.64 347.638 139.142C353.032 144.511 357.227 147.537 360.29 149.382C360.605 149.571 360.908 149.748 361.199 149.915C358.185 146.597 355.931 143.825 354.332 141.634C353.2 140.082 352.385 138.806 351.861 137.822C351.751 137.616 351.653 137.419 351.565 137.232Z"/>
</mask>
<path fill-rule="evenodd" clip-rule="evenodd" d="M268.445 144.434C259.31 152.323 244.111 156.117 229.396 155.997C222.06 155.938 214.902 154.905 208.755 152.957C202.596 151.005 197.524 148.159 194.273 144.524C194.07 144.298 193.775 144.176 193.472 144.193C193.168 144.21 192.889 144.364 192.713 144.611C190.819 147.272 187.062 149.593 182.123 151.305C177.217 153.006 171.284 154.059 165.212 154.281C159.141 154.504 152.975 153.896 147.6 152.308C142.215 150.717 137.702 148.167 134.827 144.567C134.587 144.267 134.196 144.13 133.821 144.217C120.795 147.215 101.452 149.719 85.7071 147.544C77.8295 146.455 70.9718 144.211 66.245 140.382C61.5756 136.599 58.9099 131.213 59.4716 123.579C59.4945 123.267 59.3708 122.963 59.137 122.756C58.9032 122.55 58.5862 122.464 58.28 122.524C39.3763 126.269 25.4567 119.918 16.2366 110.837C6.96057 101.7 2.48312 89.8438 2.48312 82.7261C2.48312 82.6404 2.47211 82.5551 2.45035 82.4722C1.2373 77.8512 2.35229 69.6716 7.32086 62.3453C12.2487 55.0792 20.9554 48.6819 34.8873 47.5816C35.2771 47.5508 35.6133 47.2956 35.7477 46.9283C40.9748 32.645 52.6539 24.7426 65.0351 20.4454C77.4246 16.1452 90.3984 15.5028 97.9436 15.6753C98.1261 15.6795 98.3062 15.6337 98.4645 15.5428C113.224 7.0654 125.021 3.51986 137.139 3.05399C149.298 2.5866 161.85 5.21323 178.175 9.22139C178.358 9.26638 178.55 9.25861 178.729 9.19899C191.171 5.05495 201.829 2.35711 212.45 2.0329C223.051 1.70932 233.671 3.74962 246.024 9.16607C246.229 9.25625 246.459 9.27457 246.677 9.21808C265.337 4.36847 278.045 2.14022 289.413 2.7157C300.752 3.28972 310.84 6.65833 324.243 13.1657C324.384 13.234 324.539 13.2684 324.696 13.266C339.008 13.0437 349.269 14.4281 355.928 17.9556C359.231 19.705 361.631 21.9733 363.215 24.8334C364.804 27.7013 365.61 31.2318 365.61 35.558C365.61 36.0315 365.942 36.44 366.405 36.5369C380.569 39.4981 389.1 44.3543 393.087 49.9351C397 55.4118 396.68 61.8041 392.578 68.3592C392.359 68.7089 392.377 69.1571 392.624 69.4877C398.097 76.8231 401.38 82.2536 401.081 87.6915C400.784 93.0767 396.93 98.8283 386.958 106.655C386.66 106.889 386.52 107.27 386.595 107.641C387.38 111.51 387.116 114.659 386.026 117.215C384.938 119.766 382.987 121.825 380.224 123.446C374.646 126.718 365.893 128.128 354.909 128.128C354.356 128.128 353.909 128.575 353.909 129.128C353.909 131.339 353.157 133.074 351.809 134.443C350.438 135.836 348.398 136.901 345.759 137.628C340.47 139.086 333.069 139.104 324.812 138.006C324.526 137.968 324.238 138.055 324.021 138.245C323.804 138.434 323.68 138.709 323.68 138.997C323.68 139.259 323.49 139.784 322.77 140.545C322.08 141.274 321.024 142.089 319.614 142.921C316.801 144.582 312.705 146.237 307.673 147.384C297.615 149.677 283.927 149.92 269.463 144.26C269.118 144.125 268.726 144.192 268.445 144.434ZM208.151 154.864C202.26 152.997 197.155 150.286 193.594 146.717C191.222 149.434 187.347 151.611 182.778 153.195C177.659 154.97 171.525 156.051 165.286 156.28C159.047 156.509 152.658 155.888 147.033 154.226C141.646 152.634 136.888 150.066 133.668 146.303C120.536 149.267 101.274 151.713 85.4334 149.525C77.3964 148.414 70.121 146.096 64.986 141.936C60.0676 137.951 57.1837 132.332 57.41 124.722C38.4306 128.086 24.2719 121.558 14.8331 112.261C5.29553 102.867 0.535614 90.6028 0.483551 82.8542C-0.850433 77.5569 0.480957 68.8677 5.66562 61.2228C10.8551 53.5707 19.9179 46.9336 34.0937 45.6419C39.7046 30.9746 51.8384 22.9086 64.3793 18.5559C76.9288 14.2003 90.0015 13.5166 97.7101 13.6699C112.569 5.17054 124.616 1.53393 137.062 1.05547C149.465 0.578694 162.195 3.24367 178.371 7.2103C190.757 3.09725 201.555 0.364522 212.389 0.0338336C223.23 -0.297084 234.052 1.77825 246.509 7.19545C265.019 2.39751 277.893 0.129933 289.514 0.718267C301.173 1.30845 311.491 4.76758 324.903 11.2626C339.14 11.0584 349.766 12.4282 356.864 16.1883C360.46 18.0932 363.167 20.6192 364.965 23.8642C366.651 26.9081 367.505 30.5252 367.601 34.7467C381.489 37.7616 390.372 42.6943 394.714 48.7724C399.089 54.8945 398.715 61.96 394.631 68.8343C399.819 75.8367 403.414 81.6897 403.078 87.8015C402.735 94.0217 398.364 100.158 388.671 107.851C389.373 111.755 389.089 115.131 387.866 117.999C386.578 121.02 384.292 123.379 381.236 125.171C375.351 128.623 366.496 130.045 355.865 130.124C355.66 132.403 354.744 134.312 353.235 135.846C352.968 136.116 352.685 136.374 352.385 136.619C353.363 138.855 356.848 143.862 363.856 151.315C364.567 152.071 365.315 152.853 366.1 153.66C365.699 153.32 365.029 152.996 364.081 152.537C363.825 152.413 363.548 152.279 363.251 152.132C360.084 150.568 354.59 147.548 346.562 139.48C346.472 139.506 346.382 139.531 346.291 139.556C340.825 141.062 333.463 141.099 325.455 140.105C325.201 140.748 324.752 141.361 324.222 141.921C323.362 142.828 322.139 143.753 320.631 144.643C317.608 146.428 313.312 148.15 308.118 149.334C297.852 151.674 283.972 151.941 269.292 146.338C259.606 154.401 244.106 158.117 229.38 157.997C221.878 157.936 214.518 156.881 208.151 154.864ZM351.565 137.232C350.427 138.009 349.104 138.64 347.638 139.142C353.032 144.511 357.227 147.537 360.29 149.382C360.605 149.571 360.908 149.748 361.199 149.915C358.185 146.597 355.931 143.825 354.332 141.634C353.2 140.082 352.385 138.806 351.861 137.822C351.751 137.616 351.653 137.419 351.565 137.232Z" fill="white"/>
<path d="M229.396 155.997L229.388 156.997L229.396 155.997ZM268.445 144.434L267.792 143.677L267.792 143.677L268.445 144.434ZM208.755 152.957L209.057 152.004L208.755 152.957ZM194.273 144.524L195.018 143.858L194.273 144.524ZM193.472 144.193L193.416 143.194H193.416L193.472 144.193ZM192.713 144.611L191.898 144.031H191.898L192.713 144.611ZM182.123 151.305L182.451 152.25L182.123 151.305ZM165.212 154.281L165.249 155.281H165.249L165.212 154.281ZM147.6 152.308L147.316 153.267L147.6 152.308ZM134.827 144.567L134.046 145.191L134.046 145.191L134.827 144.567ZM133.821 144.217L134.046 145.191H134.046L133.821 144.217ZM85.7071 147.544L85.844 146.553H85.844L85.7071 147.544ZM66.245 140.382L65.6155 141.159L66.245 140.382ZM59.4716 123.579L60.469 123.652V123.652L59.4716 123.579ZM59.137 122.756L58.4743 123.505L58.4743 123.505L59.137 122.756ZM58.28 122.524L58.4743 123.505L58.28 122.524ZM16.2366 110.837L16.9383 110.124L16.2366 110.837ZM2.45035 82.4722L1.48312 82.7261V82.7261L2.45035 82.4722ZM7.32086 62.3453L6.49323 61.784V61.784L7.32086 62.3453ZM34.8873 47.5816L34.966 48.5785L34.8873 47.5816ZM35.7477 46.9283L36.6867 47.272V47.272L35.7477 46.9283ZM65.0351 20.4454L65.363 21.3901L65.0351 20.4454ZM97.9436 15.6753L97.9207 16.6751H97.9207L97.9436 15.6753ZM98.4645 15.5428L98.9625 16.4099V16.4099L98.4645 15.5428ZM137.139 3.05399L137.101 2.05473L137.139 3.05399ZM178.175 9.22139L177.936 10.1926L177.936 10.1925L178.175 9.22139ZM178.729 9.19899L179.045 10.1477L179.045 10.1478L178.729 9.19899ZM212.45 2.0329L212.419 1.03337H212.419L212.45 2.0329ZM246.024 9.16607L245.622 10.0819L245.622 10.0819L246.024 9.16607ZM246.677 9.21808L246.928 10.1859L246.928 10.1859L246.677 9.21808ZM289.413 2.7157L289.363 3.71442L289.413 2.7157ZM324.243 13.1657L323.807 14.0653L323.807 14.0653L324.243 13.1657ZM324.696 13.266L324.68 12.2661L324.68 12.2661L324.696 13.266ZM355.928 17.9556L356.396 17.0719L355.928 17.9556ZM363.215 24.8334L362.341 25.318L363.215 24.8334ZM366.405 36.5369L366.61 35.558H366.61L366.405 36.5369ZM393.087 49.9351L393.901 49.3537H393.901L393.087 49.9351ZM392.578 68.3592L393.426 68.8897L393.426 68.8897L392.578 68.3592ZM392.624 69.4877L391.823 70.0857H391.823L392.624 69.4877ZM401.081 87.6915L402.079 87.7465L401.081 87.6915ZM386.958 106.655L386.34 105.869L386.34 105.869L386.958 106.655ZM386.595 107.641L387.575 107.442H387.575L386.595 107.641ZM386.026 117.215L385.106 116.823L386.026 117.215ZM380.224 123.446L380.73 124.309L380.224 123.446ZM351.809 134.443L352.522 135.144H352.522L351.809 134.443ZM345.759 137.628L346.025 138.592L346.025 138.592L345.759 137.628ZM324.812 138.006L324.944 137.014L324.944 137.014L324.812 138.006ZM324.021 138.245L323.362 137.492L323.362 137.492L324.021 138.245ZM322.77 140.545L323.496 141.233L323.496 141.233L322.77 140.545ZM319.614 142.921L319.106 142.06L319.614 142.921ZM307.673 147.384L307.451 146.409L307.673 147.384ZM269.463 144.26L269.828 143.329H269.828L269.463 144.26ZM193.594 146.717L192.841 146.059C193.023 145.85 193.284 145.726 193.561 145.717C193.838 145.708 194.106 145.814 194.302 146.01L193.594 146.717ZM208.151 154.864L208.453 153.91L208.151 154.864ZM182.778 153.195L183.106 154.14L182.778 153.195ZM165.286 156.28L165.322 157.279L165.286 156.28ZM147.033 154.226L146.749 155.185L147.033 154.226ZM133.668 146.303L133.447 145.327C133.809 145.246 134.186 145.371 134.427 145.653L133.668 146.303ZM85.4334 149.525L85.5703 148.534H85.5703L85.4334 149.525ZM64.986 141.936L64.3566 142.713L64.986 141.936ZM57.41 124.722L57.2355 123.738C57.5319 123.685 57.8361 123.769 58.0638 123.966C58.2915 124.163 58.4185 124.451 58.4096 124.752L57.41 124.722ZM14.8331 112.261L14.1314 112.974L14.8331 112.261ZM0.483551 82.8542L1.45328 82.61C1.47284 82.6877 1.483 82.7674 1.48352 82.8475L0.483551 82.8542ZM5.66562 61.2228L4.83798 60.6615V60.6615L5.66562 61.2228ZM34.0937 45.6419L35.0277 45.9992C34.8914 46.3554 34.5643 46.6031 34.1844 46.6377L34.0937 45.6419ZM64.3793 18.5559L64.7072 19.5006L64.3793 18.5559ZM97.7101 13.6699L98.2066 14.5379C98.0496 14.6278 97.8712 14.6733 97.6903 14.6697L97.7101 13.6699ZM137.062 1.05547L137.101 2.05473V2.05473L137.062 1.05547ZM178.371 7.2103L178.686 8.15934C178.508 8.21867 178.316 8.22636 178.133 8.18153L178.371 7.2103ZM212.389 0.0338336L212.358 -0.965701L212.389 0.0338336ZM246.509 7.19545L246.759 8.16346C246.543 8.2195 246.315 8.20156 246.11 8.11248L246.509 7.19545ZM289.514 0.718267L289.464 1.71699V1.71699L289.514 0.718267ZM324.903 11.2626L324.917 12.2625C324.761 12.2648 324.607 12.2306 324.467 12.1627L324.903 11.2626ZM356.864 16.1883L357.332 15.3046L357.332 15.3046L356.864 16.1883ZM364.965 23.8642L365.84 23.3796L364.965 23.8642ZM367.601 34.7467L367.389 35.724C366.937 35.6259 366.612 35.2314 366.601 34.7694L367.601 34.7467ZM394.714 48.7724L393.901 49.3537L394.714 48.7724ZM394.631 68.8343L393.827 69.4297C393.587 69.106 393.565 68.6699 393.771 68.3236L394.631 68.8343ZM403.078 87.8015L404.076 87.8565L403.078 87.8015ZM388.671 107.851L387.687 108.027C387.622 107.665 387.761 107.296 388.05 107.067L388.671 107.851ZM387.866 117.999L388.786 118.391L387.866 117.999ZM381.236 125.171L380.73 124.308L381.236 125.171ZM355.865 130.124L354.869 130.034C354.915 129.522 355.343 129.128 355.857 129.124L355.865 130.124ZM353.235 135.846L352.522 135.144L353.235 135.846ZM352.385 136.619L351.469 137.019C351.29 136.609 351.405 136.129 351.752 135.845L352.385 136.619ZM363.856 151.315L364.584 150.63L363.856 151.315ZM366.1 153.66L366.816 152.963C367.188 153.345 367.195 153.952 366.831 154.342C366.466 154.732 365.86 154.768 365.453 154.423L366.1 153.66ZM364.081 152.537L364.517 151.637H364.517L364.081 152.537ZM363.251 152.132L363.694 151.235L363.694 151.235L363.251 152.132ZM346.562 139.48L346.286 138.519C346.636 138.418 347.014 138.516 347.271 138.774L346.562 139.48ZM346.291 139.556L346.556 140.52L346.556 140.52L346.291 139.556ZM325.455 140.105L324.525 139.737C324.693 139.313 325.126 139.056 325.578 139.112L325.455 140.105ZM324.222 141.921L323.496 141.233L323.496 141.233L324.222 141.921ZM320.631 144.643L321.14 145.505L320.631 144.643ZM308.118 149.334L308.34 150.309L308.118 149.334ZM269.292 146.338L268.653 145.569C268.93 145.338 269.311 145.275 269.649 145.404L269.292 146.338ZM229.38 157.997L229.372 158.997L229.38 157.997ZM347.638 139.142L346.933 139.85C346.688 139.607 346.586 139.254 346.664 138.917C346.742 138.58 346.988 138.307 347.315 138.195L347.638 139.142ZM351.565 137.232L351.001 136.406C351.243 136.24 351.546 136.19 351.829 136.267C352.112 136.345 352.347 136.542 352.471 136.808L351.565 137.232ZM360.29 149.382L360.806 148.525H360.806L360.29 149.382ZM361.199 149.915L361.939 149.242C362.27 149.606 362.287 150.157 361.979 150.54C361.672 150.924 361.131 151.027 360.704 150.783L361.199 149.915ZM354.332 141.634L355.14 141.044L354.332 141.634ZM351.861 137.822L350.978 138.291H350.978L351.861 137.822ZM229.404 154.997C243.996 155.116 258.914 151.344 267.792 143.677L269.099 145.191C259.706 153.302 244.226 157.118 229.388 156.997L229.404 154.997ZM209.057 152.004C215.094 153.917 222.151 154.939 229.404 154.997L229.388 156.997C221.969 156.937 214.71 155.893 208.453 153.91L209.057 152.004ZM195.018 143.858C198.107 147.311 202.995 150.083 209.057 152.004L208.453 153.91C202.196 151.928 196.94 149.006 193.527 145.191L195.018 143.858ZM193.416 143.194C194.023 143.16 194.613 143.405 195.018 143.858L193.527 145.191H193.527L193.416 143.194ZM191.898 144.031C192.25 143.536 192.809 143.228 193.416 143.194L193.527 145.191H193.527L191.898 144.031ZM181.796 150.361C186.66 148.674 190.183 146.441 191.898 144.031L193.527 145.191C191.455 148.103 187.463 150.512 182.451 152.25L181.796 150.361ZM165.176 153.282C171.163 153.062 176.997 152.024 181.796 150.361L182.451 152.25C177.438 153.988 171.405 155.055 165.249 155.281L165.176 153.282ZM147.883 151.349C153.133 152.9 159.188 153.502 165.176 153.282L165.249 155.281C159.094 155.507 152.816 154.892 147.316 153.267L147.883 151.349ZM135.608 143.943C138.312 147.328 142.615 149.792 147.883 151.349L147.316 153.267C141.816 151.641 137.093 149.006 134.046 145.191L135.608 143.943ZM133.597 143.242C134.346 143.07 135.128 143.342 135.608 143.943L134.046 145.191L134.046 145.191L133.597 143.242ZM85.844 146.553C101.419 148.705 120.628 146.228 133.597 143.242L134.046 145.191C120.963 148.203 101.485 150.733 85.5703 148.534L85.844 146.553ZM66.8744 139.605C71.3972 143.269 78.0461 145.476 85.844 146.553L85.5703 148.534C77.6129 147.435 70.5464 145.153 65.6155 141.159L66.8744 139.605ZM60.469 123.652C59.9306 130.969 62.4666 136.034 66.8744 139.605L65.6155 141.159C60.6846 137.164 57.8893 131.457 58.4743 123.505L60.469 123.652ZM59.7996 122.007C60.2672 122.421 60.5147 123.029 60.469 123.652L58.4743 123.505V123.505L59.7996 122.007ZM58.0857 121.543C58.6981 121.422 59.3321 121.594 59.7997 122.007L58.4743 123.505L58.4743 123.505L58.0857 121.543ZM16.9383 110.124C25.9452 118.996 39.5367 125.218 58.0857 121.543L58.4743 123.505C39.2159 127.32 24.9681 120.84 15.5349 111.549L16.9383 110.124ZM3.48312 82.7261C3.48312 89.5321 7.81949 101.143 16.9383 110.124L15.5349 111.549C6.10165 102.258 1.48312 90.1554 1.48312 82.7261H3.48312ZM3.41757 82.2183C3.46109 82.384 3.48312 82.5547 3.48312 82.7261H1.48312V82.7261L3.41757 82.2183ZM8.1485 62.9066C3.30869 70.043 2.2916 77.929 3.41757 82.2183L1.48312 82.7261C0.183014 77.7733 1.3959 69.3002 6.49323 61.784L8.1485 62.9066ZM34.966 48.5785C21.3388 49.6548 12.9068 55.8903 8.1485 62.9066L6.49323 61.784C11.5905 54.268 20.5719 47.7091 34.8086 46.5847L34.966 48.5785ZM36.6867 47.272C36.4179 48.0065 35.7457 48.5169 34.966 48.5785L34.8086 46.5847V46.5847L36.6867 47.272ZM65.363 21.3901C53.1466 25.6301 41.7741 33.3705 36.6867 47.272L34.8086 46.5847C40.1754 31.9194 52.1611 23.8551 64.7072 19.5006L65.363 21.3901ZM97.9207 16.6751C90.4376 16.504 77.5961 17.1442 65.363 21.3901L64.7072 19.5006C77.2531 15.1462 90.3592 14.5017 97.9664 14.6756L97.9207 16.6751ZM98.9625 16.4099C98.646 16.5917 98.2857 16.6834 97.9207 16.6751L97.9664 14.6756L97.9664 14.6756L98.9625 16.4099ZM137.178 4.05325C125.257 4.51152 113.617 7.99309 98.9625 16.4099L97.9664 14.6756C112.832 6.13771 124.785 2.52819 137.101 2.05473L137.178 4.05325ZM177.936 10.1925C161.604 6.18257 149.178 3.59192 137.178 4.05325L137.101 2.05473C149.417 1.58127 162.096 4.24389 178.413 8.25024L177.936 10.1925ZM179.045 10.1478C178.687 10.267 178.303 10.2825 177.936 10.1926L178.413 8.25023L178.413 8.25023L179.045 10.1478ZM212.48 3.03244C202.005 3.35218 191.457 6.01359 179.045 10.1477L178.413 8.25024C190.884 4.09631 201.652 1.36204 212.419 1.03337L212.48 3.03244ZM245.622 10.0819C233.388 4.71758 222.915 2.71393 212.48 3.03244L212.419 1.03337C223.186 0.704721 233.954 2.78167 246.425 8.25024L245.622 10.0819ZM246.928 10.1859C246.494 10.2989 246.033 10.2623 245.622 10.0819L246.425 8.25022L246.425 8.25023L246.928 10.1859ZM289.363 3.71442C278.157 3.14714 265.573 5.34024 246.928 10.1859L246.425 8.25024C265.1 3.39671 277.934 1.1333 289.464 1.71698L289.363 3.71442ZM323.807 14.0653C310.459 7.58527 300.511 4.27879 289.363 3.71442L289.464 1.71698C300.994 2.30066 311.22 5.73139 324.68 12.2661L323.807 14.0653ZM324.711 14.2658C324.398 14.2707 324.088 14.202 323.807 14.0653L324.68 12.2661L324.68 12.2661L324.711 14.2658ZM355.46 18.8393C349.04 15.4386 339.001 14.0439 324.711 14.2658L324.68 12.2661C339.015 12.0434 349.497 13.4177 356.396 17.0719L355.46 18.8393ZM362.341 25.318C360.863 22.6503 358.616 20.5109 355.46 18.8393L356.396 17.0719C359.846 18.8991 362.399 21.2963 364.09 24.3488L362.341 25.318ZM364.61 35.558C364.61 31.3544 363.827 28.0014 362.341 25.318L364.09 24.3488C365.781 27.4013 366.61 31.1093 366.61 35.558H364.61ZM366.201 37.5157C365.274 37.322 364.61 36.5049 364.61 35.558H366.61H366.61L366.201 37.5157ZM392.273 50.5164C388.504 45.2412 380.276 40.4585 366.201 37.5157L366.61 35.558C380.862 38.5376 389.695 43.4673 393.901 49.3537L392.273 50.5164ZM391.73 67.8288C395.674 61.5257 395.894 55.5841 392.273 50.5164L393.901 49.3537C398.106 55.2395 397.685 62.0824 393.426 68.8897L391.73 67.8288ZM391.823 70.0857C391.329 69.4244 391.293 68.5281 391.73 67.8288L393.426 68.8897L393.426 68.8897L391.823 70.0857ZM400.082 87.6365C400.219 85.1467 399.542 82.6054 398.121 79.746C396.696 76.8773 394.554 73.7461 391.823 70.0857L393.426 68.8897C396.167 72.5647 398.403 75.8165 399.913 78.8563C401.427 81.9056 402.242 84.7985 402.079 87.7465L400.082 87.6365ZM386.34 105.869C396.285 98.0634 399.811 92.5535 400.082 87.6365L402.079 87.7465C401.757 93.5999 397.575 99.5931 387.575 107.442L386.34 105.869ZM385.615 107.84C385.465 107.098 385.745 106.336 386.34 105.869L387.575 107.442L387.575 107.442L385.615 107.84ZM385.106 116.823C386.098 114.497 386.371 111.563 385.615 107.84L387.575 107.442C388.39 111.458 388.134 114.821 386.946 117.607L385.106 116.823ZM379.718 122.583C382.335 121.048 384.118 119.14 385.106 116.823L386.946 117.607C385.758 120.393 383.64 122.602 380.73 124.309L379.718 122.583ZM354.909 127.128C365.857 127.128 374.382 125.714 379.718 122.583L380.73 124.309C374.911 127.722 365.929 129.128 354.909 129.128V127.128ZM352.909 129.128C352.909 128.023 353.804 127.128 354.909 127.128V129.128H352.909ZM351.097 133.741C352.255 132.564 352.909 131.083 352.909 129.128H354.909C354.909 131.595 354.058 133.584 352.522 135.144L351.097 133.741ZM345.494 136.664C348.032 135.965 349.891 134.966 351.097 133.741L352.522 135.144C350.986 136.705 348.765 137.837 346.025 138.592L345.494 136.664ZM324.944 137.014C333.151 138.106 340.395 138.069 345.494 136.664L346.025 138.592C340.545 140.102 332.987 140.102 324.68 138.997L324.944 137.014ZM323.362 137.492C323.796 137.113 324.372 136.938 324.944 137.014L324.68 138.997H324.68L323.362 137.492ZM322.68 138.997C322.68 138.42 322.929 137.872 323.362 137.492L324.68 138.997H324.68H322.68ZM322.043 139.858C322.357 139.526 322.526 139.277 322.612 139.115C322.704 138.942 322.68 138.909 322.68 138.997H324.68C324.68 139.649 324.271 140.414 323.496 141.233L322.043 139.858ZM319.106 142.06C320.466 141.257 321.438 140.497 322.043 139.858L323.496 141.233C322.721 142.051 321.582 142.921 320.123 143.782L319.106 142.06ZM307.451 146.409C312.402 145.28 316.398 143.659 319.106 142.06L320.123 143.782C317.205 145.505 313.009 147.193 307.895 148.359L307.451 146.409ZM269.828 143.329C284.081 148.907 297.562 148.664 307.451 146.409L307.895 148.359C297.668 150.691 283.773 150.934 269.099 145.191L269.828 143.329ZM267.792 143.677C268.353 143.193 269.137 143.058 269.828 143.329L269.099 145.191L269.099 145.191L267.792 143.677ZM194.302 146.01C197.713 149.428 202.655 152.073 208.453 153.91L207.849 155.817C201.864 153.921 196.598 151.143 192.886 147.423L194.302 146.01ZM182.451 152.25C186.944 150.692 190.632 148.59 192.841 146.059L194.347 147.374C191.811 150.279 187.75 152.529 183.106 154.14L182.451 152.25ZM165.249 155.281C171.405 155.055 177.438 153.988 182.451 152.25L183.106 154.14C177.88 155.952 171.646 157.047 165.322 157.279L165.249 155.281ZM147.316 153.267C152.816 154.892 159.094 155.507 165.249 155.281L165.322 157.279C158.999 157.512 152.499 156.884 146.749 155.185L147.316 153.267ZM134.427 145.653C137.48 149.22 142.042 151.708 147.316 153.267L146.749 155.185C141.25 153.56 136.295 150.912 132.908 146.953L134.427 145.653ZM85.5703 148.534C101.243 150.699 120.372 148.279 133.447 145.327L133.888 147.278C120.7 150.255 101.305 152.727 85.2965 150.515L85.5703 148.534ZM65.6155 141.159C70.5464 145.153 77.6129 147.435 85.5703 148.534L85.2965 150.515C77.1798 149.394 69.6956 147.038 64.3566 142.713L65.6155 141.159ZM58.4096 124.752C58.1925 132.051 60.9402 137.371 65.6155 141.159L64.3566 142.713C59.1951 138.532 56.1748 132.613 56.4105 124.693L58.4096 124.752ZM15.5349 111.549C24.7667 120.642 38.6065 127.039 57.2355 123.738L57.5845 125.707C38.2547 129.133 23.7772 122.475 14.1314 112.974L15.5349 111.549ZM1.48352 82.8475C1.53354 90.2887 6.15433 102.31 15.5349 111.549L14.1314 112.974C4.43674 103.425 -0.462311 90.9169 -0.516418 82.8609L1.48352 82.8475ZM6.49326 61.784C1.43704 69.2396 0.201569 77.6395 1.45328 82.61L-0.486176 83.0984C-1.90244 77.4744 -0.475128 68.4958 4.83798 60.6615L6.49326 61.784ZM34.1844 46.6377C20.3101 47.902 11.5164 54.3774 6.49326 61.784L4.83798 60.6615C10.1938 52.7641 19.5258 45.9652 34.0029 44.646L34.1844 46.6377ZM64.7072 19.5006C52.3282 23.7971 40.4957 31.7053 35.0277 45.9992L33.1597 45.2846C38.9134 30.2438 51.3487 22.0201 64.0515 17.6112L64.7072 19.5006ZM97.6903 14.6697C90.0436 14.5177 77.1019 15.1987 64.7072 19.5006L64.0515 17.6112C76.7557 13.2018 89.9595 12.5156 97.73 12.6701L97.6903 14.6697ZM137.101 2.05473C124.851 2.52564 112.96 6.099 98.2066 14.5379L97.2137 12.8019C112.179 4.24208 124.381 0.54221 137.024 0.0562086L137.101 2.05473ZM178.133 8.18153C161.95 4.21339 149.346 1.58399 137.101 2.05473L137.024 0.0562087C149.583 -0.426605 162.439 2.27396 178.609 6.23907L178.133 8.18153ZM212.419 1.03337C201.731 1.35962 191.042 4.0564 178.686 8.15934L178.056 6.26126C190.473 2.1381 201.379 -0.630578 212.358 -0.965701L212.419 1.03337ZM246.11 8.11248C233.772 2.74691 223.096 0.707472 212.419 1.03337L212.358 -0.965701C223.364 -1.30164 234.332 0.809591 246.907 6.27842L246.11 8.11248ZM289.464 1.71699C278.003 1.13681 265.254 3.36966 246.759 8.16346L246.258 6.22744C264.784 1.42537 277.782 -0.876944 289.565 -0.280455L289.464 1.71699ZM324.467 12.1627C311.112 5.69523 300.933 2.29756 289.464 1.71699L289.565 -0.280455C301.413 0.319327 311.869 3.83994 325.338 10.3626L324.467 12.1627ZM356.396 17.072C349.536 13.4381 339.131 12.0586 324.917 12.2625L324.888 10.2627C339.149 10.0582 349.995 11.4183 357.332 15.3046L356.396 17.072ZM364.09 24.3488C362.399 21.2963 359.846 18.8991 356.396 17.072L357.332 15.3046C361.075 17.2872 363.935 19.9421 365.84 23.3796L364.09 24.3488ZM366.601 34.7694C366.508 30.6689 365.68 27.2193 364.09 24.3488L365.84 23.3796C367.622 26.5969 368.502 30.3815 368.601 34.724L366.601 34.7694ZM393.901 49.3537C389.773 43.5764 381.187 38.7194 367.389 35.724L367.813 33.7695C381.791 36.8039 390.97 41.8121 395.528 48.191L393.901 49.3537ZM393.771 68.3236C397.703 61.7058 397.992 55.0802 393.901 49.3537L395.528 48.191C400.185 54.7088 399.727 62.2142 395.49 69.3451L393.771 68.3236ZM402.079 87.7465C402.393 82.0433 399.042 76.467 393.827 69.4297L395.434 68.239C400.597 75.2064 404.435 81.3361 404.076 87.8565L402.079 87.7465ZM388.05 107.067C397.71 99.4001 401.762 93.5047 402.079 87.7465L404.076 87.8565C403.708 94.5386 399.018 100.915 389.293 108.634L388.05 107.067ZM386.946 117.607C388.076 114.957 388.363 111.786 387.687 108.027L389.656 107.674C390.383 111.723 390.102 115.305 388.786 118.391L386.946 117.607ZM380.73 124.308C383.64 122.602 385.758 120.393 386.946 117.607L388.786 118.391C387.398 121.647 384.944 124.155 381.742 126.034L380.73 124.308ZM355.857 129.124C366.449 129.045 375.081 127.622 380.73 124.308L381.742 126.034C375.621 129.624 366.544 131.044 355.872 131.124L355.857 129.124ZM352.522 135.144C353.87 133.774 354.685 132.08 354.869 130.034L356.861 130.214C356.635 132.725 355.618 134.85 353.947 136.547L352.522 135.144ZM351.752 135.845C352.025 135.621 352.282 135.388 352.522 135.144L353.947 136.547C353.655 136.844 353.345 137.126 353.019 137.393L351.752 135.845ZM353.302 136.218C354.204 138.283 357.582 143.183 364.584 150.63L363.127 152C356.114 144.541 352.521 139.426 351.469 137.019L353.302 136.218ZM364.584 150.63C365.291 151.382 366.035 152.16 366.816 152.963L365.383 154.357C364.594 153.547 363.842 152.761 363.127 152L364.584 150.63ZM365.453 154.423C365.173 154.186 364.65 153.923 363.645 153.437L364.517 151.637C365.407 152.068 366.224 152.454 366.746 152.897L365.453 154.423ZM363.645 153.437C363.389 153.313 363.109 153.177 362.809 153.029L363.694 151.235C363.987 151.38 364.26 151.512 364.517 151.637L363.645 153.437ZM362.809 153.029C359.553 151.421 353.966 148.339 345.854 140.185L347.271 138.774C355.214 146.757 360.615 149.715 363.694 151.235L362.809 153.029ZM346.025 138.592C346.112 138.568 346.199 138.544 346.286 138.519L346.839 140.441C346.745 140.468 346.651 140.494 346.556 140.52L346.025 138.592ZM325.578 139.112C333.535 140.101 340.745 140.047 346.025 138.592L346.556 140.52C340.905 142.077 333.39 142.098 325.332 141.097L325.578 139.112ZM323.496 141.233C323.977 140.725 324.335 140.218 324.525 139.737L326.385 140.473C326.066 141.278 325.526 141.997 324.948 142.608L323.496 141.233ZM320.123 143.782C321.582 142.921 322.721 142.051 323.496 141.233L324.948 142.608C324.003 143.605 322.697 144.585 321.14 145.505L320.123 143.782ZM307.895 148.359C313.009 147.193 317.205 145.505 320.123 143.782L321.14 145.505C318.012 147.351 313.615 149.106 308.34 150.309L307.895 148.359ZM269.649 145.404C284.12 150.928 297.796 150.661 307.895 148.359L308.34 150.309C297.907 152.687 283.823 152.955 268.936 147.272L269.649 145.404ZM229.388 156.997C243.99 157.116 259.219 153.422 268.653 145.569L269.932 147.107C259.993 155.381 244.221 159.118 229.372 158.997L229.388 156.997ZM208.453 153.91C214.71 155.893 221.969 156.937 229.388 156.997L229.372 158.997C221.787 158.936 214.326 157.869 207.849 155.817L208.453 153.91ZM347.315 138.195C348.714 137.717 349.952 137.123 351.001 136.406L352.129 138.057C350.903 138.896 349.495 139.563 347.962 140.088L347.315 138.195ZM359.774 150.238C356.637 148.349 352.379 145.272 346.933 139.85L348.344 138.433C353.685 143.75 357.817 146.725 360.806 148.525L359.774 150.238ZM360.704 150.783C360.406 150.613 360.096 150.432 359.774 150.238L360.806 148.525C361.114 148.71 361.41 148.884 361.695 149.046L360.704 150.783ZM355.14 141.044C356.713 143.201 358.944 145.945 361.939 149.242L360.459 150.587C357.427 147.249 355.149 144.45 353.524 142.223L355.14 141.044ZM352.744 137.352C353.238 138.28 354.024 139.515 355.14 141.044L353.524 142.223C352.376 140.65 351.532 139.332 350.978 138.291L352.744 137.352ZM352.471 136.808C352.55 136.977 352.641 137.159 352.744 137.352L350.978 138.291C350.862 138.072 350.755 137.86 350.659 137.655L352.471 136.808Z" fill="#333F72" mask="url(#path-29-inside-1_1_2613)"/>
</svg>
