<svg width="489" height="277" viewBox="0 0 489 277" fill="none" xmlns="http://www.w3.org/2000/svg">
<path d="M87.618 131.414C73.4226 131.414 61.9112 119.902 61.9112 105.707C61.9112 91.5114 73.4226 80 87.618 80C101.813 80 113.325 91.5114 113.325 105.707C113.325 119.902 101.813 131.414 87.618 131.414Z" fill="#333F72"/>
<path d="M99.7855 125.39C96.1472 128.014 91.6738 129.565 86.8426 129.565C76.1662 129.565 67.2195 121.93 65.2513 111.731C68.8896 109.107 73.3629 107.556 78.1942 107.556C88.8706 107.556 97.8173 115.25 99.7855 125.39Z" fill="#F3EDE1"/>
<path d="M110.462 147.339V157.956C110.462 178.116 94.0596 194.518 73.8997 194.518H66.7424C46.5228 194.518 30.1802 178.116 30.1802 157.956V147.339C30.1802 127.119 46.5228 110.717 66.7424 110.717H73.8997C94.0596 110.717 110.462 127.119 110.462 147.339Z" fill="#333F72"/>
<path d="M100.8 153.9V197.023C100.8 202.809 96.0876 207.461 90.302 207.461" stroke="#333F72" stroke-width="4"/>
<path d="M0.775375 276.291L2.86294 265.793C4.9505 255.654 9.12565 246.349 15.3287 238.059C22.8439 227.979 33.0431 220.165 44.6738 215.513L44.7931 215.394H44.9124L45.2703 215.274C53.2627 212.113 61.7323 210.503 70.5 210.503C79.2081 210.503 87.6777 212.113 95.7297 215.274L95.849 215.334C107.718 219.986 118.037 227.859 125.731 238.059C131.874 246.349 136.049 255.654 138.137 265.793L140.284 276.291H0.775375Z" fill="#E56E0C"/>
<path fill-rule="evenodd" clip-rule="evenodd" d="M95.9683 214.737H96.0279C108.017 219.449 118.454 227.382 126.208 237.701C132.411 246.051 136.646 255.475 138.734 265.674L140.702 275.456L141 276.887H0L0.298223 275.456L2.26649 265.674C4.35405 255.475 8.58881 246.051 14.8515 237.701C22.4264 227.561 32.6256 219.748 44.3756 214.976L44.5546 214.797H44.8528L45.0317 214.737C53.1434 211.517 61.6726 209.906 70.5 209.906C79.2678 209.906 87.8566 211.517 95.9683 214.737ZM70.5 211.099C61.7323 211.099 53.2627 212.769 45.4493 215.811C45.33 215.891 45.1908 215.95 45.0317 215.99C33.401 220.642 23.2614 228.456 15.8058 238.416C9.84137 246.349 5.54695 255.654 3.45938 265.913L1.49112 275.694H139.509L137.541 265.913C135.453 255.654 131.159 246.349 125.254 238.416C117.619 228.336 107.36 220.463 95.5508 215.811H95.4911C87.7373 212.769 79.2678 211.099 70.5 211.099Z" fill="#F3EDE1"/>
<path d="M34.2957 229.47C31.1345 229.47 31.1345 234.361 34.2957 234.361C37.4569 234.361 37.4569 229.47 34.2957 229.47Z" fill="#F3EDE1"/>
<path d="M102.291 229.47C99.1295 229.47 99.1295 234.361 102.291 234.361C105.452 234.361 105.452 229.47 102.291 229.47Z" fill="#F3EDE1"/>
<path d="M119.289 242.413C116.128 242.413 116.128 247.303 119.289 247.303C122.451 247.303 122.451 242.413 119.289 242.413Z" fill="#F3EDE1"/>
<path d="M94.3579 242.413C91.1967 242.413 91.1967 247.303 94.3579 247.303C97.5191 247.303 97.5191 242.413 94.3579 242.413Z" fill="#F3EDE1"/>
<path d="M69.4264 242.413C66.2652 242.413 66.2652 247.303 69.4264 247.303C72.5876 247.303 72.5876 242.413 69.4264 242.413Z" fill="#F3EDE1"/>
<path d="M44.4949 242.413C41.3934 242.413 41.3934 247.303 44.4949 247.303C47.6561 247.303 47.6561 242.413 44.4949 242.413Z" fill="#F3EDE1"/>
<path d="M19.6231 242.413C16.4619 242.413 16.4619 247.303 19.6231 247.303C22.7843 247.303 22.7843 242.413 19.6231 242.413Z" fill="#F3EDE1"/>
<path d="M127.759 254.819C124.598 254.819 124.598 259.709 127.759 259.709C130.92 259.709 130.92 254.819 127.759 254.819Z" fill="#F3EDE1"/>
<path d="M102.827 254.819C99.6663 254.819 99.6663 259.709 102.827 259.709C105.989 259.709 105.989 254.819 102.827 254.819Z" fill="#F3EDE1"/>
<path d="M77.8959 254.819C74.7944 254.819 74.7944 259.709 77.8959 259.709C81.0571 259.709 81.0571 254.819 77.8959 254.819Z" fill="#F3EDE1"/>
<path d="M53.0241 254.819C49.8629 254.819 49.8629 259.709 53.0241 259.709C56.1256 259.709 56.1256 254.819 53.0241 254.819Z" fill="#F3EDE1"/>
<path d="M28.0926 254.819C24.9315 254.819 24.9315 259.709 28.0926 259.709C31.2538 259.709 31.2538 254.819 28.0926 254.819Z" fill="#F3EDE1"/>
<path d="M116.904 267.165C113.742 267.165 113.742 272.115 116.904 272.115C120.065 272.115 120.065 267.165 116.904 267.165Z" fill="#F3EDE1"/>
<path d="M91.9721 267.165C88.8706 267.165 88.8706 272.115 91.9721 272.115C95.1332 272.115 95.1332 267.165 91.9721 267.165Z" fill="#F3EDE1"/>
<path d="M67.1003 267.165C63.9391 267.165 63.9391 272.115 67.1003 272.115C70.2614 272.115 70.2614 267.165 67.1003 267.165Z" fill="#F3EDE1"/>
<path d="M42.1688 267.165C39.0077 267.165 39.0077 272.115 42.1688 272.115C45.33 272.115 45.33 267.165 42.1688 267.165Z" fill="#F3EDE1"/>
<path d="M17.2373 267.165C14.0761 267.165 14.0761 272.115 17.2373 272.115C20.3985 272.115 20.3985 267.165 17.2373 267.165Z" fill="#F3EDE1"/>
<path d="M56.7817 240.921C50.7576 240.921 45.9264 236.031 45.9264 230.066V216.169C53.7399 213.067 61.9708 211.517 70.5 211.517C78.9696 211.517 87.2601 213.067 95.0736 216.169V230.066C95.0736 236.031 90.2424 240.921 84.2183 240.921H56.7817Z" fill="#F3EDE1"/>
<path fill-rule="evenodd" clip-rule="evenodd" d="M95.4911 215.811H95.5508V230.066C95.5508 236.269 90.481 241.339 84.2183 241.339H56.7817C50.519 241.339 45.4492 236.269 45.4492 230.066V215.811C53.2627 212.769 61.7322 211.099 70.5 211.099C79.2678 211.099 87.7373 212.769 95.4911 215.811ZM70.5 211.994C62.1498 211.994 54.0381 213.485 46.3439 216.467V230.066C46.3439 235.792 51.0558 240.444 56.7817 240.444H84.2183C90.0038 240.444 94.6561 235.792 94.6561 230.066V216.467C86.9619 213.485 78.8503 211.994 70.5 211.994Z" fill="#333F72"/>
<path d="M42.2881 176.267C37.2183 180.74 29.5241 180.263 24.9911 175.193C20.5178 170.123 20.9949 162.369 26.0647 157.896C31.1345 153.423 38.8884 153.9 43.3617 158.97" fill="#F3EDE1"/>
<path d="M42.2881 176.267C37.2183 180.74 29.5241 180.263 24.9911 175.193C20.5178 170.123 20.9949 162.369 26.0647 157.896C31.1345 153.423 38.8884 153.9 43.3617 158.97" stroke="#333F72" stroke-width="1.5"/>
<path d="M58.5711 219.39V189.09H82.4886V219.39" fill="#F3EDE1"/>
<path d="M58.5711 219.39V189.09H82.4886V219.39" stroke="#333F72" stroke-width="1.5"/>
<path d="M81.9518 192.192V202.629C77.4784 205.075 72.2894 206.447 66.802 206.447C64.1379 206.447 61.5533 206.129 59.0482 205.492V192.192H81.9518Z" fill="#F3CFBF"/>
<path d="M99.7855 150.023V164.755C99.7855 173.94 96.0279 182.171 90.0635 188.196C84.099 194.16 75.8084 197.858 66.6231 197.858C53.0838 197.858 41.3934 189.746 36.3236 178.056C34.5343 173.94 33.5203 169.467 33.5203 164.755V150.023C33.5203 131.712 48.3718 116.92 66.6231 116.92C84.934 116.92 99.7855 131.712 99.7855 150.023Z" fill="#F3EDE1" stroke="#333F72" stroke-width="1.5"/>
<path d="M90.481 168.513C90.481 172.926 86.9023 176.505 82.4886 176.505C78.0749 176.505 74.4366 172.926 74.4366 168.513C74.4366 164.099 78.0749 160.52 82.4886 160.52C86.9023 160.52 90.481 164.099 90.481 168.513Z" fill="#F3CFBF"/>
<path d="M52.6066 168.513C52.6066 172.926 49.0279 176.505 44.6142 176.505C40.2005 176.505 36.6218 172.926 36.6218 168.513C36.6218 164.099 40.2005 160.52 44.6142 160.52C49.0279 160.52 52.6066 164.099 52.6066 168.513Z" fill="#F3CFBF"/>
<path d="M80.401 160.52C80.401 162.19 79.0888 163.503 77.4188 163.503C75.8084 163.503 74.4366 162.19 74.4366 160.52C74.4366 158.91 75.8084 157.538 77.4188 157.538C79.0888 157.538 80.401 158.91 80.401 160.52Z" fill="#333F72"/>
<path d="M51.7119 160.52C51.7119 162.19 50.3998 163.503 48.7297 163.503C47.1193 163.503 45.7475 162.19 45.7475 160.52C45.7475 158.91 47.1193 157.538 48.7297 157.538C50.3998 157.538 51.7119 158.91 51.7119 160.52Z" fill="#333F72"/>
<path d="M64.4759 174.06H56.8414L66.6231 117.099" fill="#F3EDE1"/>
<path d="M64.4759 174.06H56.8414L66.6231 117.099" stroke="#333F72" stroke-width="1.5"/>
<path d="M58.5711 180.68C63.7602 185.929 68.651 180.68 68.651 180.68" stroke="#333F72" stroke-width="1.5"/>
<path d="M41.5127 149.904C41.5127 149.904 43.1231 146.086 47.0596 145.192C49.7436 144.595 52.6066 145.907 52.6066 149.904H41.5127Z" fill="#333F72"/>
<path d="M73.8401 149.904C73.8401 145.907 76.703 144.595 79.3871 145.192C83.3236 146.086 84.8744 149.904 84.8744 149.904H73.8401Z" fill="#333F72"/>
<path d="M95.5508 158.97C100.024 153.9 107.778 153.423 112.848 157.896C117.918 162.369 118.395 170.123 113.921 175.193C109.388 180.263 101.694 180.74 96.6244 176.267" fill="#F3EDE1"/>
<path d="M95.5508 158.97C100.024 153.9 107.778 153.423 112.848 157.896C117.918 162.369 118.395 170.123 113.921 175.193C109.388 180.263 101.694 180.74 96.6244 176.267" stroke="#333F72" stroke-width="1.5"/>
<path d="M102.47 169.885L108.792 163.741" stroke="#333F72" stroke-width="1.5"/>
<path d="M43.1231 207.461C37.3376 207.461 32.6853 202.809 32.6853 197.023V153.9" stroke="#333F72" stroke-width="4"/>
<path d="M66.6231 114.534C96.7437 114.534 100.8 140.778 100.8 140.778C100.8 140.778 83.0254 140.778 70.2614 140.778C52.9645 140.778 50.6383 131.294 50.6383 131.294C50.6383 131.294 49.8033 140.778 33.5203 140.778C33.5203 140.778 41.8109 114.534 66.6231 114.534Z" fill="#333F72"/>
<mask id="path-46-inside-1_1_2562" fill="white">
<path fill-rule="evenodd" clip-rule="evenodd" d="M219.654 144.434C228.79 152.323 243.989 156.117 258.704 155.997C266.04 155.938 273.197 154.905 279.345 152.957C285.504 151.005 290.576 148.159 293.827 144.524C294.03 144.298 294.324 144.176 294.628 144.193C294.931 144.21 295.211 144.364 295.387 144.611C297.281 147.272 301.038 149.593 305.976 151.305C310.882 153.006 316.816 154.059 322.887 154.281C328.959 154.504 335.125 153.896 340.5 152.308C345.884 150.717 350.397 148.167 353.273 144.567C353.513 144.267 353.904 144.13 354.278 144.217C367.304 147.215 386.648 149.719 402.392 147.544C410.27 146.455 417.128 144.211 421.855 140.382C426.524 136.599 429.19 131.213 428.628 123.579C428.605 123.267 428.729 122.963 428.963 122.756C429.196 122.55 429.513 122.464 429.82 122.524C448.723 126.269 462.643 119.918 471.863 110.837C481.139 101.7 485.616 89.8438 485.616 82.7261C485.616 82.6404 485.627 82.5551 485.649 82.4722C486.862 77.8512 485.747 69.6716 480.779 62.3453C475.851 55.0792 467.144 48.6819 453.212 47.5816C452.822 47.5508 452.486 47.2956 452.352 46.9283C447.125 32.645 435.446 24.7426 423.064 20.4454C410.675 16.1452 397.701 15.5028 390.156 15.6753C389.973 15.6795 389.793 15.6337 389.635 15.5428C374.875 7.0654 363.079 3.51986 350.96 3.05399C338.802 2.5866 326.249 5.21323 309.925 9.22139C309.742 9.26638 309.549 9.25861 309.37 9.19899C296.929 5.05495 286.271 2.35711 275.65 2.0329C265.049 1.70932 254.428 3.74962 242.076 9.16607C241.87 9.25625 241.64 9.27457 241.423 9.21808C222.763 4.36847 210.054 2.14022 198.686 2.7157C187.347 3.28972 177.26 6.65833 163.856 13.1657C163.715 13.234 163.56 13.2684 163.404 13.266C149.092 13.0437 138.831 14.4281 132.172 17.9556C128.869 19.705 126.469 21.9733 124.884 24.8334C123.295 27.7013 122.49 31.2318 122.49 35.558C122.49 36.0315 122.158 36.44 121.694 36.5369C107.53 39.4981 98.9998 44.3543 95.0124 49.9351C91.0994 55.4118 91.4198 61.8041 95.5216 68.3592C95.7404 68.7089 95.7221 69.1571 95.4754 69.4877C90.0026 76.8231 86.7193 82.2536 87.0188 87.6915C87.3153 93.0767 91.1698 98.8283 101.142 106.655C101.439 106.889 101.58 107.27 101.505 107.641C100.719 111.51 100.984 114.659 102.073 117.215C103.161 119.766 105.112 121.825 107.876 123.446C113.453 126.718 122.207 128.128 133.191 128.128C133.743 128.128 134.191 128.575 134.191 129.128C134.191 131.339 134.943 133.074 136.29 134.443C137.661 135.836 139.701 136.901 142.34 137.628C147.63 139.086 155.03 139.104 163.288 138.006C163.573 137.968 163.861 138.055 164.078 138.245C164.295 138.434 164.419 138.709 164.419 138.997C164.419 139.259 164.609 139.784 165.33 140.545C166.02 141.274 167.076 142.089 168.485 142.921C171.298 144.582 175.394 146.237 180.427 147.384C190.484 149.677 204.173 149.92 218.636 144.26C218.982 144.125 219.374 144.192 219.654 144.434ZM279.949 154.864C285.84 152.997 290.944 150.286 294.506 146.717C296.878 149.434 300.753 151.611 305.321 153.195C310.441 154.97 316.574 156.051 322.814 156.28C329.053 156.509 335.442 155.888 341.067 154.226C346.453 152.634 351.212 150.066 354.432 146.303C367.564 149.267 386.825 151.713 402.666 149.525C410.703 148.414 417.979 146.096 423.114 141.936C428.032 137.951 430.916 132.332 430.69 124.722C449.669 128.086 463.828 121.558 473.266 112.261C482.804 102.867 487.564 90.6028 487.616 82.8542C488.95 77.5569 487.619 68.8677 482.434 61.2228C477.244 53.5707 468.182 46.9336 454.006 45.6419C448.395 30.9746 436.261 22.9086 423.72 18.5559C411.171 14.2003 398.098 13.5166 390.389 13.6699C375.53 5.17054 363.483 1.53393 351.037 1.05547C338.635 0.578694 325.905 3.24367 309.728 7.2103C297.342 3.09725 286.545 0.364522 275.711 0.0338336C264.87 -0.297084 254.047 1.77825 241.591 7.19545C223.081 2.39751 210.207 0.129933 198.585 0.718267C186.926 1.30845 176.609 4.76758 163.197 11.2626C148.96 11.0584 138.334 12.4282 131.235 16.1883C127.639 18.0932 124.932 20.6192 123.135 23.8642C121.448 26.9081 120.595 30.5252 120.499 34.7467C106.611 37.7616 97.7279 42.6943 93.3851 48.7724C89.0109 54.8945 89.3848 61.96 93.4689 68.8343C88.2802 75.8367 84.6852 81.6897 85.0218 87.8015C85.3644 94.0217 89.7357 100.158 99.4282 107.851C98.7265 111.755 99.011 115.131 100.234 117.999C101.521 121.02 103.808 123.379 106.864 125.171C112.748 128.623 121.603 130.045 132.235 130.124C132.44 132.403 133.356 134.312 134.865 135.846C135.131 136.116 135.415 136.374 135.714 136.619C134.737 138.855 131.251 143.862 124.244 151.315C123.533 152.071 122.785 152.853 122 153.66C122.401 153.32 123.071 152.996 124.019 152.537C124.275 152.413 124.551 152.279 124.848 152.132C128.015 150.568 133.51 147.548 141.537 139.48C141.627 139.506 141.718 139.531 141.809 139.556C147.275 141.062 154.637 141.099 162.644 140.105C162.899 140.748 163.348 141.361 163.878 141.921C164.737 142.828 165.96 143.753 167.468 144.643C170.491 146.428 174.788 148.15 179.982 149.334C190.248 151.674 204.128 151.941 218.807 146.338C228.493 154.401 243.994 158.117 258.72 157.997C266.222 157.936 273.582 156.881 279.949 154.864ZM136.534 137.232C137.672 138.009 138.995 138.64 140.461 139.142C135.068 144.511 130.872 147.537 127.809 149.382C127.495 149.571 127.192 149.748 126.9 149.915C129.914 146.597 132.169 143.825 133.768 141.634C134.899 140.082 135.715 138.806 136.238 137.822C136.348 137.616 136.447 137.419 136.534 137.232Z"/>
</mask>
<path fill-rule="evenodd" clip-rule="evenodd" d="M219.654 144.434C228.79 152.323 243.989 156.117 258.704 155.997C266.04 155.938 273.197 154.905 279.345 152.957C285.504 151.005 290.576 148.159 293.827 144.524C294.03 144.298 294.324 144.176 294.628 144.193C294.931 144.21 295.211 144.364 295.387 144.611C297.281 147.272 301.038 149.593 305.976 151.305C310.882 153.006 316.816 154.059 322.887 154.281C328.959 154.504 335.125 153.896 340.5 152.308C345.884 150.717 350.397 148.167 353.273 144.567C353.513 144.267 353.904 144.13 354.278 144.217C367.304 147.215 386.648 149.719 402.392 147.544C410.27 146.455 417.128 144.211 421.855 140.382C426.524 136.599 429.19 131.213 428.628 123.579C428.605 123.267 428.729 122.963 428.963 122.756C429.196 122.55 429.513 122.464 429.82 122.524C448.723 126.269 462.643 119.918 471.863 110.837C481.139 101.7 485.616 89.8438 485.616 82.7261C485.616 82.6404 485.627 82.5551 485.649 82.4722C486.862 77.8512 485.747 69.6716 480.779 62.3453C475.851 55.0792 467.144 48.6819 453.212 47.5816C452.822 47.5508 452.486 47.2956 452.352 46.9283C447.125 32.645 435.446 24.7426 423.064 20.4454C410.675 16.1452 397.701 15.5028 390.156 15.6753C389.973 15.6795 389.793 15.6337 389.635 15.5428C374.875 7.0654 363.079 3.51986 350.96 3.05399C338.802 2.5866 326.249 5.21323 309.925 9.22139C309.742 9.26638 309.549 9.25861 309.37 9.19899C296.929 5.05495 286.271 2.35711 275.65 2.0329C265.049 1.70932 254.428 3.74962 242.076 9.16607C241.87 9.25625 241.64 9.27457 241.423 9.21808C222.763 4.36847 210.054 2.14022 198.686 2.7157C187.347 3.28972 177.26 6.65833 163.856 13.1657C163.715 13.234 163.56 13.2684 163.404 13.266C149.092 13.0437 138.831 14.4281 132.172 17.9556C128.869 19.705 126.469 21.9733 124.884 24.8334C123.295 27.7013 122.49 31.2318 122.49 35.558C122.49 36.0315 122.158 36.44 121.694 36.5369C107.53 39.4981 98.9998 44.3543 95.0124 49.9351C91.0994 55.4118 91.4198 61.8041 95.5216 68.3592C95.7404 68.7089 95.7221 69.1571 95.4754 69.4877C90.0026 76.8231 86.7193 82.2536 87.0188 87.6915C87.3153 93.0767 91.1698 98.8283 101.142 106.655C101.439 106.889 101.58 107.27 101.505 107.641C100.719 111.51 100.984 114.659 102.073 117.215C103.161 119.766 105.112 121.825 107.876 123.446C113.453 126.718 122.207 128.128 133.191 128.128C133.743 128.128 134.191 128.575 134.191 129.128C134.191 131.339 134.943 133.074 136.29 134.443C137.661 135.836 139.701 136.901 142.34 137.628C147.63 139.086 155.03 139.104 163.288 138.006C163.573 137.968 163.861 138.055 164.078 138.245C164.295 138.434 164.419 138.709 164.419 138.997C164.419 139.259 164.609 139.784 165.33 140.545C166.02 141.274 167.076 142.089 168.485 142.921C171.298 144.582 175.394 146.237 180.427 147.384C190.484 149.677 204.173 149.92 218.636 144.26C218.982 144.125 219.374 144.192 219.654 144.434ZM279.949 154.864C285.84 152.997 290.944 150.286 294.506 146.717C296.878 149.434 300.753 151.611 305.321 153.195C310.441 154.97 316.574 156.051 322.814 156.28C329.053 156.509 335.442 155.888 341.067 154.226C346.453 152.634 351.212 150.066 354.432 146.303C367.564 149.267 386.825 151.713 402.666 149.525C410.703 148.414 417.979 146.096 423.114 141.936C428.032 137.951 430.916 132.332 430.69 124.722C449.669 128.086 463.828 121.558 473.266 112.261C482.804 102.867 487.564 90.6028 487.616 82.8542C488.95 77.5569 487.619 68.8677 482.434 61.2228C477.244 53.5707 468.182 46.9336 454.006 45.6419C448.395 30.9746 436.261 22.9086 423.72 18.5559C411.171 14.2003 398.098 13.5166 390.389 13.6699C375.53 5.17054 363.483 1.53393 351.037 1.05547C338.635 0.578694 325.905 3.24367 309.728 7.2103C297.342 3.09725 286.545 0.364522 275.711 0.0338336C264.87 -0.297084 254.047 1.77825 241.591 7.19545C223.081 2.39751 210.207 0.129933 198.585 0.718267C186.926 1.30845 176.609 4.76758 163.197 11.2626C148.96 11.0584 138.334 12.4282 131.235 16.1883C127.639 18.0932 124.932 20.6192 123.135 23.8642C121.448 26.9081 120.595 30.5252 120.499 34.7467C106.611 37.7616 97.7279 42.6943 93.3851 48.7724C89.0109 54.8945 89.3848 61.96 93.4689 68.8343C88.2802 75.8367 84.6852 81.6897 85.0218 87.8015C85.3644 94.0217 89.7357 100.158 99.4282 107.851C98.7265 111.755 99.011 115.131 100.234 117.999C101.521 121.02 103.808 123.379 106.864 125.171C112.748 128.623 121.603 130.045 132.235 130.124C132.44 132.403 133.356 134.312 134.865 135.846C135.131 136.116 135.415 136.374 135.714 136.619C134.737 138.855 131.251 143.862 124.244 151.315C123.533 152.071 122.785 152.853 122 153.66C122.401 153.32 123.071 152.996 124.019 152.537C124.275 152.413 124.551 152.279 124.848 152.132C128.015 150.568 133.51 147.548 141.537 139.48C141.627 139.506 141.718 139.531 141.809 139.556C147.275 141.062 154.637 141.099 162.644 140.105C162.899 140.748 163.348 141.361 163.878 141.921C164.737 142.828 165.96 143.753 167.468 144.643C170.491 146.428 174.788 148.15 179.982 149.334C190.248 151.674 204.128 151.941 218.807 146.338C228.493 154.401 243.994 158.117 258.72 157.997C266.222 157.936 273.582 156.881 279.949 154.864ZM136.534 137.232C137.672 138.009 138.995 138.64 140.461 139.142C135.068 144.511 130.872 147.537 127.809 149.382C127.495 149.571 127.192 149.748 126.9 149.915C129.914 146.597 132.169 143.825 133.768 141.634C134.899 140.082 135.715 138.806 136.238 137.822C136.348 137.616 136.447 137.419 136.534 137.232Z" fill="white"/>
<path d="M258.704 155.997L258.712 156.997L258.704 155.997ZM219.654 144.434L220.308 143.677L220.308 143.677L219.654 144.434ZM279.345 152.957L279.042 152.004L279.345 152.957ZM293.827 144.524L293.082 143.858L293.827 144.524ZM294.628 144.193L294.683 143.194H294.683L294.628 144.193ZM295.387 144.611L296.202 144.031H296.202L295.387 144.611ZM305.976 151.305L305.649 152.25L305.976 151.305ZM322.887 154.281L322.85 155.281H322.85L322.887 154.281ZM340.5 152.308L340.783 153.267L340.5 152.308ZM353.273 144.567L354.054 145.191L354.054 145.191L353.273 144.567ZM354.278 144.217L354.054 145.191H354.054L354.278 144.217ZM402.392 147.544L402.256 146.553H402.256L402.392 147.544ZM421.855 140.382L422.484 141.159L421.855 140.382ZM428.628 123.579L427.631 123.652V123.652L428.628 123.579ZM428.963 122.756L429.625 123.505L429.625 123.505L428.963 122.756ZM429.82 122.524L429.625 123.505L429.82 122.524ZM471.863 110.837L471.161 110.124L471.863 110.837ZM485.649 82.4722L486.616 82.7261V82.7261L485.649 82.4722ZM480.779 62.3453L481.606 61.784V61.784L480.779 62.3453ZM453.212 47.5816L453.134 48.5785L453.212 47.5816ZM452.352 46.9283L451.413 47.272V47.272L452.352 46.9283ZM423.064 20.4454L422.737 21.3901L423.064 20.4454ZM390.156 15.6753L390.179 16.6751H390.179L390.156 15.6753ZM389.635 15.5428L389.137 16.4099V16.4099L389.635 15.5428ZM350.96 3.05399L350.999 2.05473L350.96 3.05399ZM309.925 9.22139L310.163 10.1926L310.163 10.1925L309.925 9.22139ZM309.37 9.19899L309.054 10.1477L309.054 10.1478L309.37 9.19899ZM275.65 2.0329L275.68 1.03337H275.68L275.65 2.0329ZM242.076 9.16607L242.477 10.0819L242.478 10.0819L242.076 9.16607ZM241.423 9.21808L241.171 10.1859L241.171 10.1859L241.423 9.21808ZM198.686 2.7157L198.737 3.71442L198.686 2.7157ZM163.856 13.1657L164.293 14.0653L164.293 14.0653L163.856 13.1657ZM163.404 13.266L163.42 12.2661L163.419 12.2661L163.404 13.266ZM132.172 17.9556L131.703 17.0719L132.172 17.9556ZM124.884 24.8334L125.759 25.318L124.884 24.8334ZM121.694 36.5369L121.49 35.558H121.49L121.694 36.5369ZM95.0124 49.9351L94.1988 49.3537H94.1988L95.0124 49.9351ZM95.5216 68.3592L94.6739 68.8897L94.6739 68.8897L95.5216 68.3592ZM95.4754 69.4877L96.2769 70.0857H96.2769L95.4754 69.4877ZM87.0188 87.6915L86.0203 87.7465L87.0188 87.6915ZM101.142 106.655L101.759 105.869L101.759 105.869L101.142 106.655ZM101.505 107.641L100.525 107.442H100.525L101.505 107.641ZM102.073 117.215L102.993 116.823L102.073 117.215ZM107.876 123.446L107.37 124.309L107.876 123.446ZM136.29 134.443L135.578 135.144H135.578L136.29 134.443ZM142.34 137.628L142.075 138.592L142.075 138.592L142.34 137.628ZM163.288 138.006L163.156 137.014L163.156 137.014L163.288 138.006ZM164.078 138.245L164.737 137.492L164.737 137.492L164.078 138.245ZM165.33 140.545L164.604 141.233L164.604 141.233L165.33 140.545ZM168.485 142.921L168.994 142.06L168.485 142.921ZM180.427 147.384L180.649 146.409L180.427 147.384ZM218.636 144.26L218.272 143.329H218.272L218.636 144.26ZM294.506 146.717L295.259 146.059C295.077 145.85 294.816 145.726 294.539 145.717C294.262 145.708 293.993 145.814 293.798 146.01L294.506 146.717ZM279.949 154.864L279.647 153.91L279.949 154.864ZM305.321 153.195L304.994 154.14L305.321 153.195ZM322.814 156.28L322.777 157.279L322.814 156.28ZM341.067 154.226L341.35 155.185L341.067 154.226ZM354.432 146.303L354.652 145.327C354.291 145.246 353.913 145.371 353.672 145.653L354.432 146.303ZM402.666 149.525L402.529 148.534H402.529L402.666 149.525ZM423.114 141.936L423.743 142.713L423.114 141.936ZM430.69 124.722L430.864 123.738C430.568 123.685 430.263 123.769 430.036 123.966C429.808 124.163 429.681 124.451 429.69 124.752L430.69 124.722ZM473.266 112.261L473.968 112.974L473.266 112.261ZM487.616 82.8542L486.646 82.61C486.627 82.6877 486.617 82.7674 486.616 82.8475L487.616 82.8542ZM482.434 61.2228L483.262 60.6615V60.6615L482.434 61.2228ZM454.006 45.6419L453.072 45.9992C453.208 46.3554 453.535 46.6031 453.915 46.6377L454.006 45.6419ZM423.72 18.5559L423.392 19.5006L423.72 18.5559ZM390.389 13.6699L389.893 14.5379C390.05 14.6278 390.228 14.6733 390.409 14.6697L390.389 13.6699ZM351.037 1.05547L350.999 2.05473V2.05473L351.037 1.05547ZM309.728 7.2103L309.413 8.15934C309.592 8.21867 309.784 8.22636 309.966 8.18153L309.728 7.2103ZM275.711 0.0338336L275.741 -0.965701L275.711 0.0338336ZM241.591 7.19545L241.34 8.16346C241.556 8.2195 241.785 8.20156 241.99 8.11248L241.591 7.19545ZM198.585 0.718267L198.636 1.71699V1.71699L198.585 0.718267ZM163.197 11.2626L163.183 12.2625C163.338 12.2648 163.493 12.2306 163.633 12.1627L163.197 11.2626ZM131.235 16.1883L130.767 15.3046L130.767 15.3046L131.235 16.1883ZM123.135 23.8642L122.26 23.3796L123.135 23.8642ZM120.499 34.7467L120.711 35.724C121.162 35.6259 121.488 35.2314 121.498 34.7694L120.499 34.7467ZM93.3851 48.7724L94.1988 49.3537L93.3851 48.7724ZM93.4689 68.8343L94.2724 69.4297C94.5122 69.106 94.5344 68.6699 94.3286 68.3236L93.4689 68.8343ZM85.0218 87.8015L84.0233 87.8565L85.0218 87.8015ZM99.4282 107.851L100.412 108.027C100.478 107.665 100.338 107.296 100.05 107.067L99.4282 107.851ZM100.234 117.999L99.3138 118.391L100.234 117.999ZM106.864 125.171L107.37 124.308L106.864 125.171ZM132.235 130.124L133.231 130.034C133.185 129.522 132.757 129.128 132.242 129.124L132.235 130.124ZM134.865 135.846L135.578 135.144L134.865 135.846ZM135.714 136.619L136.63 137.019C136.81 136.609 136.694 136.129 136.347 135.845L135.714 136.619ZM124.244 151.315L123.515 150.63L124.244 151.315ZM122 153.66L121.283 152.963C120.911 153.345 120.905 153.952 121.269 154.342C121.633 154.732 122.239 154.768 122.647 154.423L122 153.66ZM124.019 152.537L123.583 151.637H123.583L124.019 152.537ZM124.848 152.132L124.405 151.235L124.405 151.235L124.848 152.132ZM141.537 139.48L141.814 138.519C141.463 138.418 141.085 138.516 140.828 138.774L141.537 139.48ZM141.809 139.556L141.543 140.52L141.543 140.52L141.809 139.556ZM162.644 140.105L163.574 139.737C163.406 139.313 162.973 139.056 162.521 139.112L162.644 140.105ZM163.878 141.921L164.604 141.233L164.604 141.233L163.878 141.921ZM167.468 144.643L166.96 145.505L167.468 144.643ZM179.982 149.334L179.76 150.309L179.982 149.334ZM218.807 146.338L219.447 145.569C219.169 145.338 218.788 145.275 218.451 145.404L218.807 146.338ZM258.72 157.997L258.728 158.997L258.72 157.997ZM140.461 139.142L141.167 139.85C141.411 139.607 141.513 139.254 141.435 138.917C141.358 138.58 141.112 138.307 140.785 138.195L140.461 139.142ZM136.534 137.232L137.099 136.406C136.856 136.24 136.553 136.19 136.27 136.267C135.987 136.345 135.753 136.542 135.628 136.808L136.534 137.232ZM127.809 149.382L127.294 148.525H127.293L127.809 149.382ZM126.9 149.915L126.16 149.242C125.83 149.606 125.813 150.157 126.12 150.54C126.428 150.924 126.968 151.027 127.396 150.783L126.9 149.915ZM133.768 141.634L132.96 141.044L133.768 141.634ZM136.238 137.822L137.121 138.291H137.121L136.238 137.822ZM258.696 154.997C244.104 155.116 229.186 151.344 220.308 143.677L219.001 145.191C228.394 153.302 243.873 157.118 258.712 156.997L258.696 154.997ZM279.042 152.004C273.005 153.917 265.949 154.939 258.696 154.997L258.712 156.997C266.131 156.937 273.389 155.893 279.647 153.91L279.042 152.004ZM293.082 143.858C289.992 147.311 285.104 150.083 279.042 152.004L279.647 153.91C285.904 151.928 291.159 149.006 294.572 145.191L293.082 143.858ZM294.683 143.194C294.076 143.16 293.487 143.405 293.082 143.858L294.572 145.191H294.572L294.683 143.194ZM296.202 144.031C295.849 143.536 295.29 143.228 294.683 143.194L294.572 145.191H294.572L296.202 144.031ZM306.304 150.361C301.44 148.674 297.917 146.441 296.202 144.031L294.572 145.191C296.644 148.103 300.636 150.512 305.649 152.25L306.304 150.361ZM322.924 153.282C316.937 153.062 311.103 152.024 306.304 150.361L305.649 152.25C310.661 153.988 316.695 155.055 322.85 155.281L322.924 153.282ZM340.217 151.349C334.966 152.9 328.912 153.502 322.924 153.282L322.85 155.281C329.006 155.507 335.283 154.892 340.783 153.267L340.217 151.349ZM352.491 143.943C349.787 147.328 345.485 149.792 340.217 151.349L340.783 153.267C346.284 151.641 351.007 149.006 354.054 145.191L352.491 143.943ZM354.503 143.242C353.753 143.07 352.971 143.342 352.491 143.943L354.054 145.191L354.054 145.191L354.503 143.242ZM402.256 146.553C386.681 148.705 367.471 146.228 354.503 143.242L354.054 145.191C367.137 148.203 386.615 150.733 402.529 148.534L402.256 146.553ZM421.225 139.605C416.702 143.269 410.053 145.476 402.256 146.553L402.529 148.534C410.487 147.435 417.553 145.153 422.484 141.159L421.225 139.605ZM427.631 123.652C428.169 130.969 425.633 136.034 421.225 139.605L422.484 141.159C427.415 137.164 430.21 131.457 429.625 123.505L427.631 123.652ZM428.3 122.007C427.832 122.421 427.585 123.029 427.631 123.652L429.625 123.505V123.505L428.3 122.007ZM430.014 121.543C429.401 121.422 428.767 121.594 428.3 122.007L429.625 123.505L429.625 123.505L430.014 121.543ZM471.161 110.124C462.154 118.996 448.563 125.218 430.014 121.543L429.625 123.505C448.884 127.32 463.131 120.84 472.565 111.549L471.161 110.124ZM484.616 82.7261C484.616 89.5321 480.28 101.143 471.161 110.124L472.565 111.549C481.998 102.258 486.616 90.1554 486.616 82.7261H484.616ZM484.682 82.2183C484.638 82.384 484.616 82.5547 484.616 82.7261H486.616V82.7261L484.682 82.2183ZM479.951 62.9066C484.791 70.043 485.808 77.929 484.682 82.2183L486.616 82.7261C487.917 77.7733 486.704 69.3002 481.606 61.784L479.951 62.9066ZM453.134 48.5785C466.761 49.6548 475.193 55.8903 479.951 62.9066L481.606 61.784C476.509 54.268 467.528 47.7091 453.291 46.5847L453.134 48.5785ZM451.413 47.272C451.682 48.0065 452.354 48.5169 453.134 48.5785L453.291 46.5847V46.5847L451.413 47.272ZM422.737 21.3901C434.953 25.6301 446.325 33.3705 451.413 47.272L453.291 46.5847C447.924 31.9194 435.938 23.8551 423.392 19.5006L422.737 21.3901ZM390.179 16.6751C397.662 16.504 410.503 17.1442 422.737 21.3901L423.392 19.5006C410.846 15.1462 397.74 14.5017 390.133 14.6756L390.179 16.6751ZM389.137 16.4099C389.454 16.5917 389.814 16.6834 390.179 16.6751L390.133 14.6756L390.133 14.6756L389.137 16.4099ZM350.922 4.05325C362.843 4.51152 374.483 7.99309 389.137 16.4099L390.133 14.6756C375.268 6.13771 363.315 2.52819 350.999 2.05473L350.922 4.05325ZM310.163 10.1925C326.495 6.18257 338.921 3.59192 350.922 4.05325L350.999 2.05473C338.683 1.58127 326.004 4.24389 309.686 8.25024L310.163 10.1925ZM309.054 10.1478C309.412 10.267 309.797 10.2825 310.163 10.1926L309.686 8.25023L309.686 8.25023L309.054 10.1478ZM275.619 3.03244C286.094 3.35218 296.642 6.01359 309.054 10.1477L309.686 8.25024C297.215 4.09631 286.448 1.36204 275.68 1.03337L275.619 3.03244ZM242.478 10.0819C254.711 4.71758 265.184 2.71393 275.619 3.03244L275.68 1.03337C264.913 0.704721 254.146 2.78167 241.674 8.25024L242.478 10.0819ZM241.171 10.1859C241.606 10.2989 242.066 10.2623 242.477 10.0819L241.674 8.25022L241.674 8.25023L241.171 10.1859ZM198.737 3.71442C209.943 3.14714 222.526 5.34024 241.171 10.1859L241.674 8.25024C222.999 3.39671 210.166 1.1333 198.636 1.71698L198.737 3.71442ZM164.293 14.0653C177.64 7.58527 187.588 4.27879 198.737 3.71442L198.636 1.71698C187.106 2.30066 176.88 5.73139 163.419 12.2661L164.293 14.0653ZM163.388 14.2658C163.701 14.2707 164.011 14.202 164.293 14.0653L163.42 12.2661L163.42 12.2661L163.388 14.2658ZM132.64 18.8393C139.06 15.4386 149.098 14.0439 163.388 14.2658L163.419 12.2661C149.085 12.0434 138.602 13.4177 131.703 17.0719L132.64 18.8393ZM125.759 25.318C127.237 22.6503 129.484 20.5109 132.64 18.8393L131.703 17.0719C128.254 18.8991 125.701 21.2963 124.009 24.3488L125.759 25.318ZM123.49 35.558C123.49 31.3544 124.272 28.0014 125.759 25.318L124.009 24.3488C122.318 27.4013 121.49 31.1093 121.49 35.558H123.49ZM121.899 37.5157C122.826 37.322 123.49 36.5049 123.49 35.558H121.49H121.49L121.899 37.5157ZM95.8261 50.5164C99.5952 45.2412 107.823 40.4585 121.899 37.5157L121.49 35.558C107.238 38.5376 98.4045 43.4673 94.1988 49.3537L95.8261 50.5164ZM96.3693 67.8288C92.4252 61.5257 92.2053 55.5841 95.8261 50.5164L94.1988 49.3537C89.9935 55.2395 90.4143 62.0824 94.6739 68.8897L96.3693 67.8288ZM96.2769 70.0857C96.7703 69.4244 96.807 68.5281 96.3693 67.8288L94.6739 68.8897L94.6739 68.8897L96.2769 70.0857ZM88.0173 87.6365C87.8801 85.1467 88.5578 82.6054 89.9781 79.746C91.4031 76.8773 93.546 73.7461 96.2769 70.0857L94.6739 68.8897C91.9321 72.5647 89.6969 75.8165 88.1869 78.8563C86.6722 81.9056 85.8579 84.7985 86.0203 87.7465L88.0173 87.6365ZM101.759 105.869C91.815 98.0634 88.288 92.5535 88.0173 87.6365L86.0203 87.7465C86.3427 93.5999 90.5246 99.5931 100.525 107.442L101.759 105.869ZM102.485 107.84C102.635 107.098 102.354 106.336 101.759 105.869L100.525 107.442L100.525 107.442L102.485 107.84ZM102.993 116.823C102.002 114.497 101.729 111.563 102.485 107.84L100.525 107.442C99.7094 111.458 99.9659 114.821 101.154 117.607L102.993 116.823ZM108.382 122.583C105.765 121.048 103.981 119.14 102.993 116.823L101.154 117.607C102.341 120.393 104.46 122.602 107.37 124.309L108.382 122.583ZM133.191 127.128C122.243 127.128 113.718 125.714 108.382 122.583L107.37 124.309C113.189 127.722 122.17 129.128 133.191 129.128V127.128ZM135.191 129.128C135.191 128.023 134.295 127.128 133.191 127.128V129.128H135.191ZM137.003 133.741C135.844 132.564 135.191 131.083 135.191 129.128H133.191C133.191 131.595 134.042 133.584 135.578 135.144L137.003 133.741ZM142.606 136.664C140.068 135.965 138.209 134.966 137.003 133.741L135.578 135.144C137.113 136.705 139.334 137.837 142.075 138.592L142.606 136.664ZM163.156 137.014C154.948 138.106 147.704 138.069 142.606 136.664L142.075 138.592C147.555 140.102 155.112 140.102 163.419 138.997L163.156 137.014ZM164.737 137.492C164.303 137.113 163.727 136.938 163.156 137.014L163.419 138.997H163.419L164.737 137.492ZM165.419 138.997C165.419 138.42 165.171 137.872 164.737 137.492L163.419 138.997H163.419H165.419ZM166.056 139.858C165.742 139.526 165.574 139.277 165.488 139.115C165.396 138.942 165.419 138.909 165.419 138.997H163.419C163.419 139.649 163.829 140.414 164.604 141.233L166.056 139.858ZM168.994 142.06C167.634 141.257 166.661 140.497 166.056 139.858L164.604 141.233C165.379 142.051 166.518 142.921 167.977 143.782L168.994 142.06ZM180.649 146.409C175.697 145.28 171.702 143.659 168.994 142.06L167.977 143.782C170.895 145.505 175.091 147.193 180.204 148.359L180.649 146.409ZM218.272 143.329C204.019 148.907 190.538 148.664 180.649 146.409L180.204 148.359C190.431 150.691 204.326 150.934 219.001 145.191L218.272 143.329ZM220.308 143.677C219.746 143.193 218.963 143.058 218.272 143.329L219.001 145.191L219.001 145.191L220.308 143.677ZM293.798 146.01C290.387 149.428 285.444 152.073 279.647 153.91L280.251 155.817C286.235 153.921 291.501 151.143 295.213 147.423L293.798 146.01ZM305.649 152.25C301.156 150.692 297.468 148.59 295.259 146.059L293.752 147.374C296.288 150.279 300.349 152.529 304.994 154.14L305.649 152.25ZM322.85 155.281C316.695 155.055 310.661 153.988 305.649 152.25L304.994 154.14C310.22 155.952 316.453 157.047 322.777 157.279L322.85 155.281ZM340.783 153.267C335.283 154.892 329.006 155.507 322.85 155.281L322.777 157.279C329.1 157.512 335.6 156.884 341.35 155.185L340.783 153.267ZM353.672 145.653C350.619 149.22 346.058 151.708 340.783 153.267L341.35 155.185C346.849 153.56 351.804 150.912 355.192 146.953L353.672 145.653ZM402.529 148.534C386.857 150.699 367.728 148.279 354.652 145.327L354.212 147.278C367.4 150.255 386.794 152.727 402.803 150.515L402.529 148.534ZM422.484 141.159C417.553 145.153 410.487 147.435 402.529 148.534L402.803 150.515C410.92 149.394 418.404 147.038 423.743 142.713L422.484 141.159ZM429.69 124.752C429.907 132.051 427.159 137.371 422.484 141.159L423.743 142.713C428.904 138.532 431.925 132.613 431.689 124.693L429.69 124.752ZM472.565 111.549C463.333 120.642 449.493 127.039 430.864 123.738L430.515 125.707C449.845 129.133 464.322 122.475 473.968 112.974L472.565 111.549ZM486.616 82.8475C486.566 90.2887 481.945 102.31 472.565 111.549L473.968 112.974C483.663 103.425 488.562 90.9169 488.616 82.8609L486.616 82.8475ZM481.606 61.784C486.663 69.2396 487.898 77.6395 486.646 82.61L488.586 83.0984C490.002 77.4744 488.575 68.4958 483.262 60.6615L481.606 61.784ZM453.915 46.6377C467.789 47.902 476.583 54.3774 481.606 61.784L483.262 60.6615C477.906 52.7641 468.574 45.9652 454.097 44.646L453.915 46.6377ZM423.392 19.5006C435.771 23.7971 447.604 31.7053 453.072 45.9992L454.94 45.2846C449.186 30.2438 436.751 22.0201 424.048 17.6112L423.392 19.5006ZM390.409 14.6697C398.056 14.5177 410.998 15.1987 423.392 19.5006L424.048 17.6112C411.344 13.2018 398.14 12.5156 390.37 12.6701L390.409 14.6697ZM350.999 2.05473C363.249 2.52564 375.139 6.099 389.893 14.5379L390.886 12.8019C375.921 4.24208 363.718 0.54221 351.076 0.0562086L350.999 2.05473ZM309.966 8.18153C326.149 4.21339 338.754 1.58399 350.999 2.05473L351.076 0.0562087C338.516 -0.426605 325.66 2.27396 309.49 6.23907L309.966 8.18153ZM275.68 1.03337C286.369 1.35962 297.057 4.0564 309.413 8.15934L310.043 6.26126C297.627 2.1381 286.72 -0.630578 275.741 -0.965701L275.68 1.03337ZM241.99 8.11248C254.327 2.74691 265.004 0.707472 275.68 1.03337L275.741 -0.965701C264.736 -1.30164 253.767 0.809591 241.192 6.27842L241.99 8.11248ZM198.636 1.71699C210.096 1.13681 222.846 3.36966 241.34 8.16346L241.842 6.22744C223.315 1.42537 210.317 -0.876944 198.535 -0.280455L198.636 1.71699ZM163.633 12.1627C176.988 5.69523 187.167 2.29756 198.636 1.71699L198.535 -0.280455C186.686 0.319327 176.23 3.83994 162.761 10.3626L163.633 12.1627ZM131.703 17.072C138.564 13.4381 148.968 12.0586 163.183 12.2625L163.211 10.2627C148.951 10.0582 138.104 11.4183 130.767 15.3046L131.703 17.072ZM124.009 24.3488C125.701 21.2963 128.254 18.8991 131.703 17.072L130.767 15.3046C127.024 17.2872 124.164 19.9421 122.26 23.3796L124.009 24.3488ZM121.498 34.7694C121.592 30.6689 122.419 27.2193 124.009 24.3488L122.26 23.3796C120.478 26.5969 119.598 30.3815 119.499 34.724L121.498 34.7694ZM94.1988 49.3537C98.3266 43.5764 106.913 38.7194 120.711 35.724L120.287 33.7695C106.309 36.8039 97.1291 41.8121 92.5715 48.191L94.1988 49.3537ZM94.3286 68.3236C90.397 61.7058 90.1073 55.0802 94.1988 49.3537L92.5715 48.191C87.9146 54.7088 88.3727 62.2142 92.6092 69.3451L94.3286 68.3236ZM86.0203 87.7465C85.7062 82.0433 89.0578 76.467 94.2724 69.4297L92.6654 68.239C87.5027 75.2064 83.6642 81.3361 84.0233 87.8565L86.0203 87.7465ZM100.05 107.067C90.3897 99.4001 86.3374 93.5047 86.0203 87.7465L84.0233 87.8565C84.3913 94.5386 89.0818 100.915 98.8065 108.634L100.05 107.067ZM101.154 117.607C100.024 114.957 99.7369 111.786 100.412 108.027L98.444 107.674C97.7161 111.723 97.998 115.305 99.3138 118.391L101.154 117.607ZM107.37 124.308C104.46 122.602 102.341 120.393 101.154 117.607L99.3138 118.391C100.701 121.647 103.156 124.155 106.358 126.034L107.37 124.308ZM132.242 129.124C121.65 129.045 113.018 127.622 107.37 124.308L106.358 126.034C112.479 129.624 121.556 131.044 132.227 131.124L132.242 129.124ZM135.578 135.144C134.229 133.774 133.415 132.08 133.231 130.034L131.239 130.214C131.465 132.725 132.482 134.85 134.152 136.547L135.578 135.144ZM136.347 135.845C136.074 135.621 135.818 135.388 135.578 135.144L134.152 136.547C134.445 136.844 134.755 137.126 135.081 137.393L136.347 135.845ZM134.798 136.218C133.895 138.283 130.517 143.183 123.515 150.63L124.973 152C131.986 144.541 135.578 139.426 136.63 137.019L134.798 136.218ZM123.515 150.63C122.808 151.382 122.064 152.16 121.283 152.963L122.717 154.357C123.506 153.547 124.257 152.761 124.973 152L123.515 150.63ZM122.647 154.423C122.926 154.186 123.449 153.923 124.454 153.437L123.583 151.637C122.693 152.068 121.876 152.454 121.353 152.897L122.647 154.423ZM124.454 153.437C124.71 153.313 124.99 153.177 125.291 153.029L124.405 151.235C124.112 151.38 123.839 151.512 123.583 151.637L124.454 153.437ZM125.291 153.029C128.546 151.421 134.133 148.339 142.246 140.185L140.828 138.774C132.886 146.757 127.484 149.715 124.405 151.235L125.291 153.029ZM142.075 138.592C141.987 138.568 141.9 138.544 141.814 138.519L141.26 140.441C141.354 140.468 141.449 140.494 141.543 140.52L142.075 138.592ZM162.521 139.112C154.565 140.101 147.355 140.047 142.075 138.592L141.543 140.52C147.195 142.077 154.709 142.098 162.768 141.097L162.521 139.112ZM164.604 141.233C164.122 140.725 163.765 140.218 163.574 139.737L161.715 140.473C162.033 141.278 162.573 141.997 163.152 142.608L164.604 141.233ZM167.977 143.782C166.518 142.921 165.379 142.051 164.604 141.233L163.152 142.608C164.096 143.605 165.402 144.585 166.96 145.505L167.977 143.782ZM180.204 148.359C175.091 147.193 170.895 145.505 167.977 143.782L166.96 145.505C170.088 147.351 174.485 149.106 179.76 150.309L180.204 148.359ZM218.451 145.404C203.979 150.928 190.303 150.661 180.204 148.359L179.76 150.309C190.192 152.687 204.277 152.955 219.164 147.272L218.451 145.404ZM258.712 156.997C244.109 157.116 228.88 153.422 219.447 145.569L218.167 147.107C228.107 155.381 243.878 159.118 258.728 158.997L258.712 156.997ZM279.647 153.91C273.389 155.893 266.131 156.937 258.712 156.997L258.728 158.997C266.313 158.936 273.774 157.869 280.251 155.817L279.647 153.91ZM140.785 138.195C139.386 137.717 138.147 137.123 137.099 136.406L135.97 138.057C137.197 138.896 138.605 139.563 140.137 140.088L140.785 138.195ZM128.325 150.238C131.462 148.349 135.721 145.272 141.167 139.85L139.756 138.433C134.415 143.75 130.282 146.725 127.294 148.525L128.325 150.238ZM127.396 150.783C127.694 150.613 128.004 150.432 128.325 150.238L127.293 148.525C126.986 148.71 126.69 148.884 126.405 149.046L127.396 150.783ZM132.96 141.044C131.386 143.201 129.156 145.945 126.16 149.242L127.641 150.587C130.673 147.249 132.951 144.45 134.575 142.223L132.96 141.044ZM135.356 137.352C134.862 138.28 134.076 139.515 132.96 141.044L134.575 142.223C135.723 140.65 136.567 139.332 137.121 138.291L135.356 137.352ZM135.628 136.808C135.549 136.977 135.458 137.159 135.356 137.352L137.121 138.291C137.238 138.072 137.345 137.86 137.44 137.655L135.628 136.808Z" fill="#333F72" mask="url(#path-46-inside-1_1_2562)"/>
</svg>
